<svg width="2900" height="1813" viewBox="0 0 2900 1813" fill="none" xmlns="http://www.w3.org/2000/svg">
<path d="M1153.88 539.584C1153.88 539.616 1153.51 539.64 1152.91 539.644C1152.31 539.648 1151.48 539.628 1150.57 539.572C1149.65 539.512 1148.83 539.428 1148.23 539.344C1147.64 539.264 1147.27 539.188 1147.28 539.16C1147.28 539.128 1147.65 539.144 1148.25 539.184C1148.94 539.232 1149.72 539.284 1150.58 539.344C1151.45 539.396 1152.23 539.444 1152.91 539.484C1153.51 539.52 1153.88 539.552 1153.88 539.584Z" fill="#263238"/>
<path d="M1154.41 538.605C1154.41 538.637 1154.03 538.661 1153.43 538.665C1152.83 538.669 1152.01 538.649 1151.09 538.593C1150.18 538.533 1149.35 538.449 1148.76 538.365C1148.16 538.285 1147.8 538.209 1147.8 538.181C1147.81 538.149 1148.18 538.165 1148.78 538.205C1149.47 538.253 1150.25 538.305 1151.11 538.365C1151.97 538.417 1152.75 538.465 1153.44 538.505C1154.04 538.541 1154.41 538.573 1154.41 538.605Z" fill="#263238"/>
<path d="M1128.7 537.764C1128.7 537.764 1129.68 535.92 1130.75 535.408C1131.82 534.896 1141.45 533.855 1141.45 533.855L1157.92 535.336C1157.92 535.336 1157.4 537.052 1154.82 537.268C1152.24 537.488 1149.31 537.448 1149.31 537.448C1149.31 537.448 1147.57 539.412 1144.78 540.161C1141.99 540.913 1138.3 541.225 1135.64 539.613C1132.98 537.996 1130.87 540.133 1129.85 538.412C1129.4 537.66 1128.7 537.764 1128.7 537.764Z" fill="#263238"/>
<path d="M1160.61 511.21C1160.04 512.778 1159.35 514.303 1158.53 515.759C1158.29 516.203 1157.99 516.679 1157.5 516.835C1158.49 514.499 1159.01 511.966 1159.04 509.426C1158.77 510.274 1158.46 511.114 1158.11 511.938C1157.85 512.554 1157.58 513.166 1157.25 513.751C1156.38 515.283 1155.16 516.587 1153.96 517.875C1153.03 518.868 1152.16 519.936 1151.09 520.772C1148.94 522.46 1148.78 522.348 1146.42 523.944C1145.69 524.433 1144.28 525.185 1143.79 525.905C1143.53 526.269 1143.39 526.689 1143.23 527.105C1141.97 530.462 1139.91 533.518 1137.27 535.951L1142.73 536.983C1144.93 536.743 1146.94 535.491 1148.38 533.81C1149.82 532.13 1150.73 530.042 1151.29 527.901C1151.43 527.381 1151.56 526.833 1151.91 526.433C1152.21 526.101 1152.62 525.905 1153 525.665C1153.64 525.253 1154.18 524.685 1154.55 524.024C1154.14 524.333 1153.62 524.497 1153.1 524.481C1154.46 523.488 1155.76 522.416 1156.99 521.264C1158.13 520.196 1159.25 519.012 1159.75 517.527C1159.31 518.143 1158.71 518.651 1158.03 518.976C1159.63 516.711 1160.53 513.975 1160.61 511.21Z" fill="#263238"/>
<path d="M1131 536.604C1130.9 536.572 1130.78 536.62 1130.7 536.704C1130.63 536.792 1130.61 536.912 1130.63 537.02C1130.66 537.236 1130.85 537.416 1131.07 537.436C1131.29 537.452 1131.51 537.3 1131.56 537.088C1131.62 536.876 1131.49 536.632 1131.28 536.56C1131.15 536.508 1131 536.532 1130.85 536.556" fill="#263238"/>
<path d="M1129.01 537.248C1129.01 537.248 1127.61 537.512 1127.09 538.348C1126.57 539.184 1126.51 539.913 1126.63 539.953C1126.63 539.953 1126.84 539.505 1127.91 539.116C1128.97 538.728 1130.04 538.496 1130.04 538.496L1129.01 537.248Z" fill="#263238"/>
<path d="M1139.57 532.562C1137.71 530.925 1135.85 529.289 1133.99 527.653C1133.35 527.085 1132.7 526.513 1132.2 525.812C1131.15 524.356 1130.84 522.468 1129.79 521.012C1129.68 521.432 1129.58 521.852 1129.47 522.276C1129.17 521.2 1128.72 520.159 1128.14 519.207C1128.02 519.691 1127.91 520.179 1127.8 520.663C1127.46 519.163 1126.82 517.731 1125.92 516.483C1125.46 517.031 1125.22 517.751 1125.26 518.463C1124.76 517.151 1124.18 515.875 1123.5 514.65C1122.18 518.015 1122.75 521.812 1123.64 525.312C1123.82 525.996 1124 526.685 1124.36 527.297C1124.75 527.969 1125.33 528.513 1125.92 529.017C1128.47 531.193 1131.46 532.934 1133.45 535.63L1141.66 535.218C1141.29 535.042 1139.8 532.766 1139.57 532.562Z" fill="#263238"/>
<path d="M1141.75 535.232L1141.67 535.237C1141.71 535.253 1141.74 535.257 1141.75 535.232Z" fill="#263238"/>
<path d="M1151.3 527.87C1151.43 527.35 1151.56 526.802 1151.92 526.402C1152.21 526.07 1152.63 525.873 1153 525.633C1153.64 525.221 1154.18 524.653 1154.56 523.993C1154.14 524.301 1153.62 524.465 1153.1 524.449C1154.46 523.457 1155.76 522.385 1156.99 521.233C1158.14 520.164 1159.25 518.98 1159.76 517.496C1159.32 518.112 1158.72 518.62 1158.04 518.944C1159.63 516.684 1160.54 513.947 1160.61 511.183C1160.04 512.751 1159.35 514.275 1158.54 515.732C1158.29 516.176 1157.99 516.652 1157.5 516.808C1158.49 514.471 1159.02 511.939 1159.05 509.398C1158.77 510.247 1158.46 511.087 1158.12 511.911C1157.86 512.527 1157.58 513.139 1157.25 513.723C1156.38 515.256 1155.17 516.56 1153.96 517.848C1153.03 518.84 1152.11 519.832 1151.1 520.745L1155.87 518.448L1153.45 521.445L1156.13 520.188C1156.13 520.188 1151.77 523.901 1151.08 525.749C1150.39 527.598 1151.01 528.882 1151.01 528.882L1151.3 527.87Z" fill="#263238"/>
<path d="M1132.2 525.812C1131.15 524.356 1130.84 522.468 1129.79 521.012C1129.68 521.432 1129.58 521.852 1129.47 522.276C1129.17 521.2 1128.72 520.159 1128.14 519.207C1128.02 519.691 1127.91 520.179 1127.8 520.664C1127.46 519.163 1126.82 517.731 1125.92 516.483C1125.46 517.031 1125.22 517.751 1125.26 518.463C1124.76 517.151 1124.18 515.875 1123.5 514.65C1122.18 518.015 1122.75 521.812 1123.64 525.312C1123.82 525.997 1124 526.685 1124.36 527.297L1124.58 524.396C1124.58 524.396 1124.71 520.616 1125.74 522.096C1126.78 523.576 1128.84 525.977 1128.84 525.977L1128.4 523.4C1128.4 523.4 1129.85 525.62 1130.76 525.896C1131.68 526.169 1132.2 525.812 1132.2 525.812Z" fill="#263238"/>
<path d="M1143.54 526.319C1143.54 526.319 1143.54 526.315 1143.54 526.303C1143.58 526.291 1143.55 526.327 1143.55 526.335C1143.54 526.367 1143.52 526.415 1143.5 526.479C1143.45 526.603 1143.38 526.787 1143.27 527.019C1143.06 527.487 1142.76 528.155 1142.35 528.975C1141.95 529.795 1141.46 530.763 1140.86 531.82C1140.56 532.348 1140.24 532.896 1139.87 533.44C1139.68 533.712 1139.49 533.988 1139.22 534.232C1139.02 534.352 1138.85 534.36 1138.68 534.404C1138.51 534.436 1138.34 534.472 1138.16 534.496C1135.4 534.916 1132.89 535.128 1131.09 535.392C1130.65 535.44 1130.33 535.7 1130.06 535.936C1129.8 536.18 1129.61 536.424 1129.45 536.625C1129.15 537.029 1129.01 537.273 1128.99 537.265C1128.98 537.261 1129.01 537.197 1129.07 537.077C1129.14 536.957 1129.24 536.785 1129.38 536.573C1129.53 536.36 1129.71 536.108 1129.97 535.844C1130.23 535.596 1130.59 535.296 1131.07 535.232C1132.87 534.924 1135.38 534.688 1138.13 534.268C1138.3 534.244 1138.47 534.208 1138.63 534.18C1138.79 534.144 1138.97 534.108 1139.07 534.056C1139.3 533.848 1139.5 533.572 1139.69 533.312C1140.06 532.78 1140.38 532.236 1140.68 531.712C1141.28 530.667 1141.78 529.707 1142.2 528.899C1142.61 528.111 1142.94 527.463 1143.19 526.979C1143.29 526.771 1143.38 526.599 1143.46 526.455C1143.48 526.407 1143.5 526.363 1143.53 526.319C1143.54 526.307 1143.54 526.283 1143.55 526.303C1143.55 526.315 1143.54 526.319 1143.54 526.319Z" fill="#263238"/>
<path d="M1153.43 521.241C1153.44 521.245 1153.41 521.301 1153.36 521.409C1153.31 521.517 1153.23 521.665 1153.1 521.853C1152.85 522.225 1152.44 522.733 1151.82 523.249C1151.21 523.769 1150.41 524.293 1149.5 524.821C1149.05 525.085 1148.57 525.361 1148.13 525.701C1147.68 526.042 1147.28 526.462 1146.95 526.958C1146.28 527.954 1145.92 529.062 1145.52 530.03C1145.12 531.01 1144.66 531.855 1144.2 532.507C1143.74 533.167 1143.31 533.647 1143 533.967C1142.84 534.127 1142.71 534.243 1142.62 534.319C1142.54 534.395 1142.49 534.431 1142.48 534.427C1142.47 534.415 1142.64 534.239 1142.93 533.903C1143.22 533.571 1143.63 533.075 1144.07 532.415C1144.5 531.755 1144.94 530.926 1145.32 529.946C1145.72 528.982 1146.08 527.862 1146.76 526.826C1147.1 526.31 1147.53 525.866 1148 525.517C1148.46 525.169 1148.95 524.897 1149.4 524.633C1150.32 524.117 1151.11 523.613 1151.73 523.117C1152.34 522.625 1152.77 522.145 1153.04 521.793C1153.29 521.445 1153.41 521.229 1153.43 521.241Z" fill="#263238"/>
<path d="M1142.44 538.852C1142.47 538.908 1142.02 539.108 1141.44 539.02C1140.87 538.936 1140.49 538.616 1140.53 538.568C1140.57 538.512 1140.95 538.72 1141.47 538.792C1141.99 538.876 1142.43 538.788 1142.44 538.852Z" fill="#263238"/>
<path d="M1144.61 538.516C1144.64 538.568 1143.9 538.892 1142.94 538.812C1141.97 538.744 1141.29 538.316 1141.33 538.268C1141.35 538.204 1142.04 538.524 1142.95 538.584C1143.87 538.66 1144.59 538.448 1144.61 538.516Z" fill="#263238"/>
<path d="M1150.58 539.349C1149.71 539.289 1148.93 539.237 1148.24 539.189C1147.65 539.149 1147.28 539.133 1147.27 539.165C1147.27 539.197 1147.63 539.269 1148.23 539.349C1148.82 539.429 1149.65 539.518 1150.56 539.578C1151.47 539.638 1152.3 539.658 1152.9 539.65C1153.5 539.646 1153.88 539.618 1153.88 539.59C1153.88 539.558 1153.51 539.526 1152.91 539.49C1152.22 539.449 1151.44 539.401 1150.58 539.349Z" fill="#263238"/>
<path d="M1127.08 411.623C1127.08 411.671 1126.49 411.711 1125.53 411.719C1124.58 411.727 1123.26 411.695 1121.8 411.603C1120.34 411.511 1119.03 411.371 1118.08 411.243C1117.13 411.115 1116.55 410.999 1116.56 410.947C1116.57 410.895 1117.16 410.923 1118.11 410.987C1119.2 411.063 1120.45 411.147 1121.82 411.243C1123.2 411.327 1124.44 411.399 1125.54 411.467C1126.49 411.523 1127.08 411.571 1127.08 411.623Z" fill="#263238"/>
<path d="M1127.92 410.07C1127.92 410.118 1127.33 410.162 1126.37 410.166C1125.42 410.174 1124.1 410.142 1122.64 410.05C1121.19 409.958 1119.87 409.818 1118.92 409.69C1117.98 409.562 1117.4 409.446 1117.4 409.394C1117.41 409.342 1118 409.37 1118.95 409.434C1120.04 409.51 1121.29 409.594 1122.67 409.69C1124.04 409.774 1125.29 409.846 1126.38 409.914C1127.33 409.97 1127.92 410.018 1127.92 410.07Z" fill="#263238"/>
<path d="M1086.99 408.7C1086.99 408.7 1088.55 405.763 1090.26 404.947C1091.97 404.131 1107.31 402.475 1107.31 402.475L1133.54 404.831C1133.54 404.831 1132.71 407.564 1128.6 407.912C1124.49 408.26 1119.81 408.2 1119.81 408.2C1119.81 408.2 1117.05 411.328 1112.6 412.524C1108.16 413.721 1102.28 414.221 1098.04 411.648C1093.8 409.076 1090.45 412.472 1088.82 409.736C1088.11 408.54 1086.99 408.7 1086.99 408.7Z" fill="#263238"/>
<path d="M1137.79 366.393C1136.89 368.894 1135.78 371.318 1134.49 373.639C1134.09 374.347 1133.61 375.103 1132.84 375.351C1134.42 371.626 1135.26 367.593 1135.3 363.553C1134.87 364.905 1134.38 366.241 1133.83 367.553C1133.42 368.538 1132.97 369.51 1132.45 370.438C1131.06 372.878 1129.12 374.959 1127.21 377.007C1125.73 378.588 1124.35 380.288 1122.65 381.62C1119.21 384.309 1118.96 384.129 1115.2 386.673C1114.04 387.453 1111.8 388.649 1111.01 389.798C1110.61 390.378 1110.37 391.05 1110.13 391.706C1108.11 397.055 1104.83 401.92 1100.62 405.793L1109.32 407.437C1112.83 407.053 1116.04 405.06 1118.34 402.384C1120.63 399.707 1122.07 396.383 1122.97 392.97C1123.19 392.142 1123.39 391.27 1123.96 390.63C1124.43 390.098 1125.09 389.79 1125.69 389.406C1126.71 388.749 1127.56 387.845 1128.16 386.789C1127.5 387.277 1126.67 387.541 1125.85 387.517C1128.01 385.937 1130.08 384.225 1132.04 382.396C1133.86 380.696 1135.64 378.808 1136.44 376.443C1135.74 377.427 1134.79 378.231 1133.7 378.752C1136.24 375.155 1137.68 370.798 1137.79 366.393Z" fill="#263238"/>
<path d="M1090.66 406.888C1090.49 406.836 1090.3 406.912 1090.18 407.052C1090.07 407.188 1090.03 407.38 1090.06 407.556C1090.11 407.9 1090.42 408.188 1090.76 408.216C1091.11 408.244 1091.46 407.996 1091.54 407.66C1091.62 407.324 1091.42 406.936 1091.1 406.816C1090.88 406.736 1090.63 406.772 1090.4 406.808" fill="#263238"/>
<path d="M1087.45 407.902C1087.45 407.902 1085.21 408.322 1084.38 409.655C1083.56 410.987 1083.47 412.143 1083.66 412.207C1083.66 412.207 1083.99 411.491 1085.69 410.875C1087.38 410.259 1089.09 409.887 1089.09 409.887L1087.45 407.902Z" fill="#263238"/>
<path d="M1104.32 400.447C1101.36 397.843 1098.39 395.234 1095.43 392.626C1094.41 391.722 1093.37 390.81 1092.57 389.697C1090.91 387.377 1090.41 384.372 1088.74 382.052C1088.58 382.724 1088.4 383.392 1088.24 384.064C1087.76 382.348 1087.04 380.696 1086.11 379.175C1085.93 379.947 1085.75 380.724 1085.57 381.496C1085.03 379.107 1084.01 376.827 1082.58 374.835C1081.86 375.707 1081.48 376.855 1081.53 377.987C1080.74 375.899 1079.81 373.866 1078.73 371.914C1076.62 377.275 1077.53 383.32 1078.96 388.901C1079.24 389.989 1079.54 391.09 1080.11 392.062C1080.74 393.134 1081.66 393.998 1082.6 394.802C1086.65 398.271 1091.41 401.039 1094.58 405.34L1107.67 404.684C1107.06 404.392 1104.68 400.767 1104.32 400.447Z" fill="#263238"/>
<path d="M1107.8 404.678L1107.67 404.686C1107.73 404.714 1107.78 404.722 1107.8 404.678Z" fill="#263238"/>
<path d="M1122.96 392.974C1123.17 392.146 1123.38 391.274 1123.95 390.634C1124.42 390.102 1125.08 389.794 1125.68 389.409C1126.7 388.753 1127.55 387.849 1128.15 386.793C1127.49 387.281 1126.66 387.545 1125.84 387.521C1128 385.941 1130.07 384.229 1132.03 382.4C1133.85 380.7 1135.63 378.812 1136.43 376.447C1135.73 377.431 1134.78 378.235 1133.69 378.756C1136.23 375.155 1137.67 370.798 1137.79 366.393C1136.89 368.894 1135.78 371.318 1134.48 373.639C1134.09 374.347 1133.61 375.103 1132.84 375.351C1134.41 371.626 1135.25 367.593 1135.3 363.553C1134.87 364.905 1134.37 366.241 1133.82 367.553C1133.41 368.538 1132.97 369.51 1132.44 370.438C1131.06 372.878 1129.12 374.959 1127.2 377.007C1125.73 378.588 1124.25 380.168 1122.64 381.62L1130.24 377.963L1126.4 382.736L1130.66 380.732C1130.66 380.732 1123.71 386.645 1122.61 389.586C1121.5 392.526 1122.49 394.574 1122.49 394.574L1122.96 392.974Z" fill="#263238"/>
<path d="M1092.58 389.695C1090.92 387.375 1090.42 384.37 1088.75 382.05C1088.58 382.722 1088.41 383.39 1088.24 384.062C1087.77 382.346 1087.05 380.694 1086.12 379.173C1085.94 379.946 1085.75 380.722 1085.57 381.494C1085.04 379.105 1084.01 376.825 1082.59 374.833C1081.87 375.705 1081.48 376.853 1081.53 377.985C1080.75 375.897 1079.81 373.864 1078.73 371.912C1076.63 377.273 1077.54 383.318 1078.96 388.899C1079.24 389.987 1079.55 391.088 1080.11 392.06L1080.47 387.439C1080.47 387.439 1080.67 381.418 1082.32 383.774C1083.98 386.131 1087.25 389.955 1087.25 389.955L1086.55 385.855C1086.55 385.855 1088.87 389.391 1090.32 389.827C1091.76 390.263 1092.58 389.695 1092.58 389.695Z" fill="#263238"/>
<path d="M1110.63 390.46C1110.63 390.46 1110.63 390.452 1110.63 390.436C1110.69 390.416 1110.65 390.472 1110.65 390.488C1110.63 390.54 1110.61 390.62 1110.57 390.72C1110.49 390.92 1110.37 391.212 1110.21 391.584C1109.88 392.328 1109.38 393.396 1108.74 394.701C1108.1 396.005 1107.32 397.549 1106.37 399.23C1105.9 400.066 1105.39 400.942 1104.79 401.81C1104.48 402.242 1104.18 402.682 1103.74 403.07C1103.43 403.258 1103.16 403.274 1102.89 403.346C1102.62 403.398 1102.34 403.454 1102.07 403.494C1097.67 404.166 1093.67 404.499 1090.81 404.923C1090.1 405.003 1089.58 405.415 1089.16 405.791C1088.75 406.183 1088.44 406.567 1088.19 406.887C1087.71 407.531 1087.48 407.923 1087.46 407.907C1087.45 407.903 1087.49 407.795 1087.59 407.607C1087.69 407.415 1087.85 407.143 1088.08 406.803C1088.31 406.467 1088.61 406.063 1089.02 405.643C1089.43 405.247 1090 404.771 1090.76 404.667C1093.63 404.174 1097.63 403.802 1102.01 403.134C1102.28 403.094 1102.55 403.038 1102.81 402.99C1103.07 402.934 1103.36 402.874 1103.51 402.794C1103.88 402.466 1104.2 402.026 1104.5 401.61C1105.08 400.758 1105.6 399.894 1106.08 399.066C1107.03 397.405 1107.84 395.873 1108.51 394.589C1109.15 393.336 1109.68 392.3 1110.08 391.528C1110.25 391.196 1110.39 390.924 1110.51 390.696C1110.55 390.616 1110.59 390.548 1110.62 390.48C1110.64 390.46 1110.64 390.424 1110.66 390.452C1110.64 390.46 1110.63 390.46 1110.63 390.46Z" fill="#263238"/>
<path d="M1126.36 382.397C1126.37 382.401 1126.33 382.493 1126.25 382.661C1126.17 382.833 1126.03 383.069 1125.84 383.369C1125.45 383.961 1124.78 384.769 1123.81 385.594C1122.83 386.422 1121.56 387.258 1120.11 388.098C1119.39 388.522 1118.63 388.954 1117.92 389.498C1117.2 390.038 1116.56 390.707 1116.04 391.503C1114.98 393.087 1114.41 394.851 1113.76 396.396C1113.13 397.956 1112.39 399.3 1111.66 400.34C1110.93 401.389 1110.24 402.157 1109.74 402.661C1109.5 402.913 1109.29 403.101 1109.15 403.225C1109.01 403.349 1108.93 403.409 1108.92 403.397C1108.9 403.377 1109.17 403.097 1109.64 402.565C1110.11 402.033 1110.76 401.249 1111.45 400.196C1112.15 399.148 1112.85 397.824 1113.45 396.268C1114.08 394.727 1114.65 392.943 1115.74 391.299C1116.28 390.479 1116.96 389.766 1117.71 389.214C1118.45 388.658 1119.22 388.222 1119.95 387.81C1121.41 386.99 1122.67 386.186 1123.65 385.398C1124.63 384.609 1125.31 383.849 1125.73 383.289C1126.14 382.725 1126.33 382.381 1126.36 382.397Z" fill="#263238"/>
<path d="M1108.85 410.445C1108.89 410.533 1108.18 410.849 1107.26 410.709C1106.34 410.577 1105.75 410.065 1105.81 409.993C1105.87 409.905 1106.48 410.237 1107.31 410.353C1108.14 410.481 1108.82 410.345 1108.85 410.445Z" fill="#263238"/>
<path d="M1112.35 409.933C1112.39 410.013 1111.22 410.529 1109.68 410.405C1108.14 410.297 1107.06 409.613 1107.11 409.536C1107.16 409.436 1108.25 409.941 1109.7 410.041C1111.16 410.161 1112.32 409.829 1112.35 409.933Z" fill="#263238"/>
<path d="M1121.82 411.253C1120.45 411.161 1119.2 411.073 1118.11 410.997C1117.16 410.933 1116.57 410.905 1116.56 410.957C1116.56 411.005 1117.14 411.121 1118.08 411.253C1119.03 411.385 1120.34 411.521 1121.8 411.613C1123.25 411.705 1124.57 411.737 1125.53 411.729C1126.49 411.721 1127.08 411.681 1127.08 411.633C1127.08 411.581 1126.49 411.533 1125.54 411.473C1124.44 411.413 1123.2 411.337 1121.82 411.253Z" fill="#263238"/>
<path d="M871.64 260.293C871.712 260.257 870.884 260.265 870.408 260.361C869.704 260.501 869.228 261.001 868.768 261.553C868.968 261.605 869.184 261.585 869.392 261.565C870.312 261.477 870.968 261.433 871.892 261.473C871.964 261.145 871.92 260.633 871.64 260.293Z" fill="#263238"/>
<path d="M885.544 263.664C882.684 263.22 879.859 262.524 877.119 261.584C875.254 263.34 874.034 265.757 871.922 267.209C870.965 267.869 869.857 268.301 868.985 269.069C867.781 270.126 867.169 271.69 866.633 273.198C865.168 277.315 863.956 281.52 863 285.784L865.864 282.012L865.764 284.284L869.713 277.879L870.109 279.939C870.109 279.939 876.726 274.114 879.195 271.942C881.663 269.769 883.836 267.105 883.836 267.105L885.544 263.664Z" fill="#263238"/>
<path d="M877.82 259.305C877.82 259.305 879.301 257.529 880.485 254.468C881.669 251.408 882.021 245.087 885.55 242.522C889.078 239.954 897.864 233.732 897.864 233.732L894.211 238.865L898.656 235.313C898.656 235.313 897.372 238.177 894.903 240.35L898.48 238.669C898.48 238.669 898.036 242.522 896.42 242.79C896.2 242.826 895.172 244.242 895.172 244.242L895.564 245.171C895.564 245.171 891.311 254.208 890.191 256.017C889.066 257.825 886.186 261.39 886.186 261.39L877.82 259.305Z" fill="#263238"/>
<path d="M871.495 260.581C871.535 260.453 871.691 258.873 874.276 258.789C876.856 258.705 878.016 259.045 878.016 259.045C878.016 259.045 885.39 261.005 886.446 261.585C887.502 262.165 894.979 260.393 894.979 260.393C894.979 260.393 898.36 266.33 893.923 270.227C889.486 274.124 886.994 272.687 886.994 272.687C886.994 272.687 886.614 268.042 884.713 266.858C884.713 266.858 881.417 266.814 879.857 266.054C878.292 265.294 875.38 262.549 874.788 262.169C874.195 261.789 872.507 262.021 871.915 261.589C871.319 261.157 871.495 260.581 871.495 260.581Z" fill="#263238"/>
<path d="M873.176 260.724C873.464 260.724 873.696 260.491 873.696 260.204C873.696 259.916 873.464 259.684 873.176 259.684C872.889 259.684 872.656 259.916 872.656 260.204C872.656 260.491 872.889 260.724 873.176 260.724Z" fill="#263238"/>
<path d="M895.559 245.165L895.167 244.236C895.167 244.236 896.195 242.82 896.415 242.784C898.031 242.52 898.475 238.663 898.475 238.663L894.899 240.344C897.367 238.171 898.651 235.307 898.651 235.307L894.206 238.86L897.859 233.727C897.859 233.727 889.07 239.948 885.545 242.516L891.206 240.7L890.15 243.368L894.619 241.444C894.619 241.444 893.686 242.748 894.182 244.112C894.683 245.477 895.559 245.165 895.559 245.165Z" fill="#263238"/>
<path d="M870.117 279.931L869.721 277.87L865.772 284.275L865.872 282.003L863.008 285.776C863.964 281.511 865.176 277.306 866.641 273.189L866.564 277.014L868.769 275.402V278.174L870.693 276.398L870.117 279.931Z" fill="#263238"/>
<path d="M891.035 268.446C891.007 268.474 890.751 268.258 890.254 268.046C889.766 267.822 889.03 267.63 888.262 267.274C886.718 266.569 885.702 265.621 885.75 265.577C885.798 265.517 886.858 266.361 888.366 267.046C889.11 267.394 889.838 267.61 890.33 267.886C890.827 268.15 891.059 268.426 891.035 268.446Z" fill="#263238"/>
<path d="M892.014 266.832C892.006 266.896 890.686 266.704 889.162 266.111C887.633 265.523 886.533 264.775 886.569 264.723C886.609 264.659 887.749 265.299 889.254 265.879C890.75 266.464 892.03 266.76 892.014 266.832Z" fill="#263238"/>
<path d="M885.031 266.583C885.035 266.599 884.895 266.663 884.627 266.755C884.363 266.843 883.975 266.971 883.475 267.067C882.983 267.167 882.371 267.243 881.695 267.151C881.011 267.071 880.322 266.723 879.674 266.33C878.342 265.55 877.274 264.646 876.554 263.946C876.194 263.594 875.918 263.294 875.738 263.078C875.558 262.862 875.47 262.734 875.482 262.726C875.51 262.698 875.934 263.154 876.674 263.818C877.418 264.478 878.49 265.35 879.798 266.114C880.45 266.507 881.087 266.835 881.727 266.923C882.363 267.023 882.955 266.971 883.443 266.895C884.423 266.731 885.019 266.543 885.031 266.583Z" fill="#263238"/>
<path d="M890.785 241.979C890.797 241.991 890.605 242.207 890.245 242.583C889.853 242.987 889.332 243.519 888.704 244.163C888.056 244.832 887.252 245.608 886.412 246.492C886.004 246.94 885.648 247.472 885.528 248.112C885.4 248.748 885.452 249.44 885.488 250.149C885.56 251.577 885.456 252.953 885.172 254.165C884.896 255.382 884.432 256.418 883.927 257.214C883.423 258.01 882.891 258.566 882.499 258.91C882.303 259.082 882.139 259.206 882.027 259.282C881.915 259.358 881.851 259.398 881.847 259.39C881.803 259.35 882.819 258.71 883.779 257.118C884.256 256.33 884.692 255.306 884.948 254.113C885.212 252.921 885.308 251.573 885.236 250.161C885.204 249.456 885.144 248.744 885.288 248.06C885.416 247.368 885.816 246.788 886.24 246.336C887.108 245.444 887.912 244.692 888.576 244.035C889.224 243.415 889.765 242.899 890.173 242.511C890.557 242.159 890.773 241.967 890.785 241.979Z" fill="#263238"/>
<path d="M894.916 246.311C894.924 246.327 894.812 246.415 894.6 246.567C894.388 246.719 894.068 246.923 893.664 247.155C892.856 247.623 891.683 248.187 890.323 248.627C888.963 249.067 887.683 249.295 886.751 249.388C886.286 249.436 885.906 249.456 885.646 249.456C885.386 249.456 885.242 249.452 885.238 249.432C885.234 249.392 885.81 249.348 886.727 249.207C887.643 249.071 888.899 248.819 890.243 248.387C891.587 247.951 892.752 247.423 893.576 246.999C894.404 246.575 894.896 246.279 894.916 246.311Z" fill="#263238"/>
<path d="M895.105 242.686C895.117 242.694 895.057 242.834 894.885 243.054C894.713 243.274 894.417 243.554 894.001 243.815C893.581 244.079 893.049 244.323 892.465 244.587C891.877 244.847 891.221 245.123 890.532 245.395C889.148 245.939 887.876 246.383 886.956 246.691C886.032 246.995 885.456 247.167 885.444 247.135C885.432 247.103 885.988 246.871 886.896 246.523C887.872 246.147 889.092 245.679 890.44 245.163C891.129 244.891 891.785 244.627 892.373 244.375C892.965 244.123 893.497 243.903 893.913 243.662C894.753 243.198 895.073 242.662 895.105 242.686Z" fill="#263238"/>
<path d="M891.8 250.965C891.824 250.981 891.568 251.297 890.992 251.533C890.416 251.773 889.6 251.933 888.7 252.141C887.8 252.337 886.983 252.537 886.355 252.521C885.727 252.517 885.379 252.305 885.395 252.281C885.407 252.241 885.763 252.381 886.351 252.341C886.939 252.313 887.743 252.089 888.644 251.893C889.54 251.685 890.368 251.549 890.928 251.361C891.492 251.185 891.776 250.937 891.8 250.965Z" fill="#263238"/>
<path d="M867.914 276.48C867.902 276.476 867.946 276.26 868.082 275.884C868.222 275.512 868.462 274.98 868.866 274.388C869.266 273.795 869.838 273.143 870.607 272.579C871.371 272.007 872.319 271.563 873.303 271.123C874.291 270.683 875.211 270.239 875.959 269.695C876.712 269.159 877.32 268.574 877.776 268.042C878.696 266.974 879.064 266.166 879.108 266.194C879.12 266.198 879.044 266.406 878.856 266.758C878.664 267.106 878.368 267.606 877.916 268.158C877.468 268.715 876.864 269.323 876.1 269.883C875.339 270.451 874.395 270.915 873.411 271.351C872.427 271.791 871.495 272.219 870.747 272.767C869.998 273.307 869.426 273.927 869.018 274.492C868.19 275.632 867.962 276.504 867.914 276.48Z" fill="#263238"/>
<path d="M871.839 277.543C871.763 277.519 872.172 276.383 872.216 274.918C872.276 273.454 871.956 272.294 872.032 272.274C872.088 272.246 872.528 273.414 872.468 274.926C872.42 276.439 871.896 277.571 871.839 277.543Z" fill="#263238"/>
<path d="M874.833 275.095C874.761 275.087 874.805 274.223 874.733 273.167C874.665 272.107 874.505 271.259 874.573 271.243C874.637 271.223 874.913 272.067 874.981 273.151C875.061 274.231 874.897 275.103 874.833 275.095Z" fill="#263238"/>
<path d="M877.359 273.051C877.287 273.055 877.207 272.191 876.999 271.147C876.795 270.103 876.543 269.271 876.611 269.247C876.671 269.223 877.039 270.031 877.243 271.099C877.459 272.163 877.427 273.051 877.359 273.051Z" fill="#263238"/>
<path d="M880.204 268.81C880.156 268.862 879.836 268.654 879.488 268.342C879.14 268.03 878.892 267.738 878.94 267.686C878.984 267.634 879.308 267.842 879.656 268.154C880.004 268.466 880.252 268.762 880.204 268.81Z" fill="#263238"/>
<path d="M886.923 259.977C886.883 260.033 886.111 259.537 885.207 258.873C884.298 258.205 883.598 257.621 883.638 257.565C883.678 257.509 884.447 258.005 885.355 258.669C886.263 259.333 886.967 259.921 886.923 259.977Z" fill="#263238"/>
<path d="M890.182 255.776C890.214 255.832 888.99 256.388 887.357 256.432C886.545 256.452 885.829 256.36 885.309 256.332C884.789 256.296 884.469 256.3 884.465 256.26C884.461 256.228 884.785 256.16 885.313 256.152C885.841 256.136 886.565 256.2 887.349 256.176C888.93 256.14 890.162 255.704 890.182 255.776Z" fill="#263238"/>
<path d="M1258.4 414.807C1258.46 414.775 1257.75 414.783 1257.34 414.863C1256.73 414.983 1256.33 415.415 1255.93 415.887C1256.1 415.935 1256.29 415.915 1256.46 415.895C1257.25 415.819 1257.82 415.783 1258.61 415.815C1258.68 415.543 1258.64 415.103 1258.4 414.807Z" fill="#263238"/>
<path d="M1270.37 417.708C1267.91 417.328 1265.48 416.728 1263.12 415.916C1261.52 417.424 1260.46 419.509 1258.65 420.757C1257.82 421.325 1256.87 421.697 1256.12 422.357C1255.08 423.269 1254.56 424.614 1254.1 425.91C1252.84 429.455 1251.79 433.075 1250.97 436.744L1253.43 433.495L1253.35 435.452L1256.75 429.939L1257.09 431.711C1257.09 431.711 1262.78 426.694 1264.91 424.826C1267.03 422.957 1268.9 420.661 1268.9 420.661L1270.37 417.708Z" fill="#263238"/>
<path d="M1263.71 413.93C1263.71 413.93 1264.98 412.398 1266 409.765C1267.02 407.129 1267.33 401.692 1270.36 399.479C1273.4 397.271 1280.96 391.914 1280.96 391.914L1277.82 396.335L1281.64 393.274C1281.64 393.274 1280.54 395.739 1278.42 397.607L1281.5 396.159C1281.5 396.159 1281.11 399.475 1279.72 399.704C1279.53 399.736 1278.65 400.956 1278.65 400.956L1278.99 401.756C1278.99 401.756 1275.33 409.537 1274.36 411.094C1273.39 412.65 1270.91 415.718 1270.91 415.718L1263.71 413.93Z" fill="#263238"/>
<path d="M1258.27 415.026C1258.3 414.918 1258.44 413.558 1260.66 413.486C1262.88 413.414 1263.88 413.706 1263.88 413.706C1263.88 413.706 1270.23 415.394 1271.14 415.894C1272.05 416.395 1278.48 414.866 1278.48 414.866C1278.48 414.866 1281.39 419.975 1277.58 423.332C1273.76 426.684 1271.61 425.448 1271.61 425.448C1271.61 425.448 1271.28 421.448 1269.65 420.431C1269.65 420.431 1266.81 420.395 1265.47 419.739C1264.12 419.083 1261.61 416.723 1261.1 416.395C1260.59 416.067 1259.14 416.267 1258.63 415.894C1258.12 415.522 1258.27 415.026 1258.27 415.026Z" fill="#263238"/>
<path d="M1260.16 414.722C1260.16 414.97 1259.96 415.17 1259.71 415.17C1259.46 415.17 1259.26 414.97 1259.26 414.722C1259.26 414.473 1259.46 414.273 1259.71 414.273C1259.96 414.273 1260.16 414.473 1260.16 414.722Z" fill="#263238"/>
<path d="M1278.98 401.783L1278.64 400.983C1278.64 400.983 1279.52 399.763 1279.71 399.731C1281.1 399.503 1281.48 396.186 1281.48 396.186L1278.4 397.634C1280.53 395.766 1281.63 393.302 1281.63 393.302L1277.81 396.362L1280.95 391.941C1280.95 391.941 1273.39 397.294 1270.35 399.507L1275.22 397.943L1274.31 400.239L1278.16 398.583C1278.16 398.583 1277.36 399.703 1277.79 400.879C1278.22 402.051 1278.98 401.783 1278.98 401.783Z" fill="#263238"/>
<path d="M1257.09 431.694L1256.75 429.921L1253.35 435.434L1253.43 433.478L1250.97 436.727C1251.79 433.058 1252.84 429.437 1254.1 425.893L1254.03 429.185L1255.92 427.801V430.189L1257.58 428.657L1257.09 431.694Z" fill="#263238"/>
<path d="M1275.1 421.821C1275.07 421.845 1274.85 421.661 1274.42 421.477C1274 421.285 1273.37 421.121 1272.71 420.812C1271.38 420.208 1270.5 419.388 1270.54 419.352C1270.58 419.3 1271.5 420.028 1272.79 420.616C1273.44 420.917 1274.06 421.105 1274.49 421.341C1274.92 421.569 1275.12 421.805 1275.1 421.821Z" fill="#263238"/>
<path d="M1275.91 420.443C1275.91 420.499 1274.77 420.335 1273.46 419.823C1272.14 419.319 1271.19 418.671 1271.23 418.627C1271.26 418.571 1272.24 419.123 1273.54 419.623C1274.83 420.123 1275.93 420.379 1275.91 420.443Z" fill="#263238"/>
<path d="M1269.93 420.212C1269.93 420.224 1269.81 420.28 1269.58 420.36C1269.35 420.436 1269.01 420.544 1268.59 420.632C1268.17 420.716 1267.64 420.784 1267.06 420.704C1266.47 420.636 1265.88 420.336 1265.32 420C1264.17 419.332 1263.25 418.548 1262.63 417.948C1262.33 417.644 1262.09 417.388 1261.93 417.2C1261.78 417.016 1261.7 416.904 1261.71 416.896C1261.73 416.872 1262.1 417.264 1262.74 417.836C1263.38 418.404 1264.3 419.156 1265.43 419.812C1265.99 420.152 1266.53 420.432 1267.09 420.508C1267.63 420.596 1268.14 420.548 1268.56 420.484C1269.41 420.34 1269.92 420.176 1269.93 420.212Z" fill="#263238"/>
<path d="M1274.84 399.046C1274.85 399.058 1274.68 399.242 1274.37 399.566C1274.03 399.914 1273.59 400.374 1273.05 400.926C1272.49 401.498 1271.8 402.17 1271.08 402.93C1270.73 403.314 1270.42 403.774 1270.32 404.323C1270.2 404.871 1270.25 405.467 1270.28 406.075C1270.34 407.303 1270.25 408.487 1270.01 409.531C1269.77 410.576 1269.37 411.472 1268.94 412.156C1268.5 412.844 1268.04 413.32 1267.7 413.616C1267.54 413.764 1267.4 413.872 1267.3 413.936C1267.2 414.004 1267.14 414.036 1267.14 414.028C1267.1 413.992 1267.98 413.444 1268.8 412.072C1269.21 411.392 1269.59 410.512 1269.81 409.483C1270.04 408.459 1270.12 407.295 1270.06 406.079C1270.03 405.471 1269.98 404.859 1270.1 404.27C1270.22 403.674 1270.56 403.174 1270.92 402.786C1271.67 402.018 1272.36 401.37 1272.94 400.806C1273.5 400.27 1273.96 399.83 1274.31 399.494C1274.64 399.198 1274.83 399.034 1274.84 399.046Z" fill="#263238"/>
<path d="M1278.43 402.781C1278.44 402.793 1278.34 402.873 1278.16 403.001C1277.97 403.133 1277.7 403.31 1277.35 403.51C1276.65 403.914 1275.64 404.398 1274.47 404.778C1273.3 405.154 1272.2 405.35 1271.4 405.43C1271 405.47 1270.67 405.49 1270.45 405.49C1270.22 405.49 1270.1 405.486 1270.1 405.47C1270.1 405.434 1270.59 405.398 1271.38 405.278C1272.17 405.162 1273.25 404.942 1274.41 404.57C1275.56 404.194 1276.57 403.738 1277.28 403.374C1277.98 403.009 1278.41 402.753 1278.43 402.781Z" fill="#263238"/>
<path d="M1278.61 399.63C1278.62 399.634 1278.57 399.758 1278.42 399.946C1278.28 400.134 1278.02 400.374 1277.66 400.602C1277.3 400.83 1276.84 401.042 1276.34 401.266C1275.83 401.49 1275.27 401.726 1274.67 401.962C1273.48 402.43 1272.39 402.81 1271.59 403.078C1270.8 403.342 1270.3 403.491 1270.29 403.463C1270.28 403.435 1270.76 403.234 1271.54 402.934C1272.38 402.61 1273.43 402.21 1274.59 401.762C1275.18 401.526 1275.75 401.298 1276.26 401.086C1276.76 400.87 1277.22 400.678 1277.58 400.474C1278.31 400.066 1278.58 399.606 1278.61 399.63Z" fill="#263238"/>
<path d="M1275.75 406.772C1275.77 406.788 1275.55 407.06 1275.06 407.26C1274.56 407.468 1273.86 407.604 1273.09 407.784C1272.31 407.952 1271.61 408.128 1271.07 408.112C1270.53 408.108 1270.23 407.924 1270.24 407.904C1270.25 407.872 1270.56 407.992 1271.06 407.956C1271.57 407.932 1272.26 407.74 1273.04 407.568C1273.81 407.388 1274.52 407.272 1275 407.112C1275.49 406.96 1275.73 406.744 1275.75 406.772Z" fill="#263238"/>
<path d="M1255.18 428.752C1255.17 428.748 1255.21 428.564 1255.32 428.24C1255.44 427.92 1255.65 427.464 1256 426.952C1256.35 426.444 1256.83 425.88 1257.49 425.396C1258.15 424.904 1258.97 424.52 1259.81 424.144C1260.66 423.768 1261.45 423.383 1262.1 422.915C1262.75 422.451 1263.28 421.951 1263.67 421.491C1264.46 420.575 1264.78 419.879 1264.82 419.899C1264.83 419.903 1264.76 420.083 1264.6 420.383C1264.43 420.683 1264.18 421.111 1263.78 421.587C1263.4 422.067 1262.88 422.591 1262.22 423.071C1261.56 423.564 1260.75 423.96 1259.9 424.336C1259.05 424.716 1258.25 425.084 1257.61 425.552C1256.97 426.016 1256.47 426.548 1256.12 427.036C1255.42 428.02 1255.22 428.768 1255.18 428.752Z" fill="#263238"/>
<path d="M1258.55 429.649C1258.49 429.629 1258.84 428.648 1258.88 427.388C1258.93 426.128 1258.65 425.128 1258.72 425.112C1258.77 425.088 1259.15 426.092 1259.1 427.396C1259.05 428.7 1258.6 429.673 1258.55 429.649Z" fill="#263238"/>
<path d="M1261.15 427.53C1261.08 427.522 1261.12 426.778 1261.06 425.87C1261 424.957 1260.86 424.225 1260.92 424.209C1260.98 424.193 1261.22 424.917 1261.28 425.854C1261.34 426.79 1261.2 427.538 1261.15 427.53Z" fill="#263238"/>
<path d="M1263.33 425.777C1263.27 425.781 1263.2 425.037 1263.02 424.137C1262.85 423.237 1262.63 422.524 1262.69 422.5C1262.74 422.48 1263.06 423.177 1263.23 424.093C1263.42 425.017 1263.39 425.777 1263.33 425.777Z" fill="#263238"/>
<path d="M1265.76 422.145C1265.72 422.189 1265.44 422.009 1265.14 421.741C1264.84 421.473 1264.63 421.221 1264.67 421.177C1264.71 421.133 1264.98 421.313 1265.28 421.581C1265.59 421.849 1265.8 422.101 1265.76 422.145Z" fill="#263238"/>
<path d="M1271.55 414.535C1271.52 414.583 1270.86 414.159 1270.07 413.583C1269.29 413.011 1268.69 412.503 1268.72 412.459C1268.76 412.411 1269.42 412.835 1270.2 413.411C1270.98 413.983 1271.59 414.487 1271.55 414.535Z" fill="#263238"/>
<path d="M1274.35 410.914C1274.38 410.962 1273.32 411.438 1271.92 411.478C1271.22 411.498 1270.6 411.418 1270.16 411.394C1269.71 411.362 1269.44 411.366 1269.44 411.334C1269.43 411.306 1269.71 411.25 1270.16 411.242C1270.62 411.226 1271.24 411.282 1271.92 411.266C1273.27 411.222 1274.33 410.85 1274.35 410.914Z" fill="#263238"/>
</svg>
