<svg width="2900" height="1813" viewBox="0 0 2900 1813" fill="none" xmlns="http://www.w3.org/2000/svg">
<path d="M2825.4 811.944C2868.71 767.005 2884.65 697.573 2865.29 638.238C2845.93 578.907 2792.11 532.24 2730.63 521.491C2669.15 510.742 2602.68 536.371 2564.34 585.613L2502.94 711.793C2591.29 775.826 2679.64 839.86 2767.99 903.889C2797.54 925.311 2839 946.805 2867.44 923.924C2879.27 914.402 2885.15 898.859 2885.57 883.679C2886.51 849.569 2859.15 816.954 2825.4 811.944Z" fill="#EBEBEB"/>
<path d="M1429.84 768.375C1475.56 754.519 1497.24 771.986 1497.24 771.986C1497.24 771.986 1498.59 748.924 1519.74 738.563C1534.59 731.29 1553.84 727.738 1566.51 738.375C1555.68 717.469 1560.22 689.697 1577.13 673.326C1594.05 656.955 1621.96 653.332 1642.5 664.845C1612.88 590.49 1653.06 495.941 1727.14 465.642C1801.21 435.343 1896.13 474.635 1927.12 548.426C1930 512.9 1970.47 485.76 2004.43 496.573C1991.01 470.86 2014.7 434.667 2043.64 436.678C2029.56 387.312 2048.14 330.273 2088.6 298.678C2129.06 267.083 2188.91 262.876 2233.39 288.497C2277.87 314.121 2304.25 367.998 2297.22 418.847C2321.61 401.372 2359.61 407.407 2377.39 431.584C2392.17 361.728 2468.4 313.006 2539.02 323.543C2609.65 334.076 2666.89 398.093 2675.35 468.993C2683.8 539.893 2646.47 612.708 2587.22 652.544L1403.77 868.014C1374.1 838.899 1390.06 780.435 1429.84 768.375Z" fill="#EBEBEB"/>
<g opacity="0.72">
<path d="M1752.73 656.8C1748.74 646.311 1762.26 624.393 1776.73 606.626C1783.81 597.925 1793.93 592.182 1804.43 588.215C1842.6 573.791 1884.45 592.946 1916.46 618.259C1914.91 601.879 1931.46 586.4 1947.7 589.039C1936.46 577.21 1914.14 586.56 1908.57 601.895C1887.5 588.963 1863.39 573.955 1838.78 571.624C1814.16 569.293 1794.67 575.127 1777.25 592.67C1759.84 610.221 1748.31 631.775 1752.73 656.8Z" fill="white"/>
</g>
<g opacity="0.72">
<path d="M2121.15 430.928C2104.06 441.941 2093.57 462.459 2094.63 482.762C2081.53 479.323 2067.03 481.638 2055.66 488.988C2044.29 496.338 2036.22 508.606 2033.97 521.958C2039.4 509.142 2052.35 496.174 2065.55 491.755C2084.6 485.381 2099.37 491.043 2107.73 500.952C2103.33 481.246 2109.56 459.488 2123.72 445.092C2137.88 430.697 2159.53 424.114 2179.31 428.193C2161.27 418.832 2138.24 419.916 2121.15 430.928Z" fill="white"/>
</g>
<path d="M1370.69 758.228C1324.98 744.372 1303.3 761.839 1303.3 761.839C1303.3 761.839 1301.94 738.778 1280.79 728.417C1265.94 721.143 1246.7 717.592 1234.03 728.229C1244.86 707.323 1240.32 679.551 1223.4 663.18C1206.48 646.808 1178.58 643.185 1158.04 654.698C1187.65 580.344 1147.48 485.795 1073.4 455.495C999.328 425.196 904.407 464.489 873.42 538.28C870.537 502.754 830.068 475.614 796.11 486.427C809.526 460.714 785.833 424.52 756.901 426.532C770.981 377.166 752.395 320.126 711.934 288.531C671.474 256.937 611.635 252.73 567.152 278.35C522.669 303.975 496.284 357.852 503.318 408.701C478.929 391.226 440.924 397.26 423.149 421.437C408.37 351.581 332.14 302.859 261.516 313.396C190.892 323.929 133.649 387.947 125.191 458.846C116.734 529.746 154.067 602.561 213.322 642.398L1396.77 857.864C1426.44 828.752 1410.47 770.289 1370.69 758.228Z" fill="#EBEBEB"/>
<g opacity="0.72">
<path d="M698.913 424.059C716.004 435.072 726.501 455.59 725.438 475.892C738.534 472.453 753.034 474.769 764.406 482.119C775.779 489.468 783.849 501.737 786.092 515.089C780.666 502.273 767.717 489.305 754.517 484.886C735.471 478.512 720.699 484.174 712.333 494.083C716.732 474.377 710.506 452.619 696.342 438.223C682.182 423.827 660.528 417.245 640.754 421.324C658.801 411.963 681.822 413.046 698.913 424.059Z" fill="white"/>
</g>
<g opacity="0.72">
<path d="M623.774 432.095C632.995 438.038 638.661 449.111 638.085 460.063C645.151 458.208 652.977 459.46 659.111 463.422C665.246 467.385 669.6 474.007 670.812 481.213C667.885 474.299 660.895 467.301 653.777 464.918C643.5 461.479 635.53 464.534 631.016 469.881C633.391 459.248 630.028 447.507 622.386 439.741C614.744 431.976 603.06 428.421 592.391 430.62C602.128 425.569 614.552 426.153 623.774 432.095Z" fill="white"/>
</g>
<path d="M1141.58 427.214C1141.58 427.246 1141.21 427.27 1140.61 427.274C1140.01 427.278 1139.18 427.258 1138.26 427.202C1137.35 427.142 1136.52 427.058 1135.93 426.974C1135.34 426.894 1134.97 426.818 1134.98 426.79C1134.98 426.758 1135.35 426.774 1135.95 426.814C1136.64 426.862 1137.42 426.914 1138.28 426.974C1139.14 427.026 1139.92 427.074 1140.61 427.114C1141.21 427.15 1141.58 427.182 1141.58 427.214Z" fill="#E0E0E0"/>
<path d="M1142.09 426.23C1142.09 426.262 1141.72 426.286 1141.12 426.29C1140.52 426.294 1139.69 426.274 1138.78 426.218C1137.86 426.158 1137.04 426.074 1136.44 425.99C1135.85 425.91 1135.48 425.834 1135.49 425.806C1135.49 425.774 1135.86 425.79 1136.46 425.83C1137.15 425.878 1137.93 425.93 1138.79 425.99C1139.66 426.042 1140.43 426.09 1141.12 426.13C1141.72 426.166 1142.09 426.198 1142.09 426.23Z" fill="#E0E0E0"/>
<path d="M1116.41 425.358C1116.41 425.358 1117.4 423.515 1118.47 423.003C1119.54 422.491 1129.17 421.451 1129.17 421.451L1145.63 422.931C1145.63 422.931 1145.11 424.646 1142.53 424.866C1139.95 425.086 1137.02 425.046 1137.02 425.046C1137.02 425.046 1135.28 427.01 1132.49 427.757C1129.71 428.505 1126.01 428.821 1123.35 427.21C1120.69 425.598 1118.59 427.729 1117.57 426.01C1117.11 425.254 1116.41 425.358 1116.41 425.358Z" fill="#E0E0E0"/>
<path d="M1148.29 398.84C1147.72 400.408 1147.03 401.931 1146.22 403.387C1145.97 403.831 1145.67 404.306 1145.18 404.462C1146.17 402.127 1146.7 399.596 1146.73 397.061C1146.46 397.908 1146.15 398.748 1145.8 399.572C1145.55 400.188 1145.27 400.799 1144.94 401.383C1144.07 402.915 1142.85 404.218 1141.65 405.506C1140.72 406.498 1139.86 407.566 1138.79 408.401C1136.64 410.089 1136.48 409.977 1134.12 411.572C1133.39 412.064 1131.98 412.812 1131.48 413.532C1131.23 413.896 1131.09 414.316 1130.93 414.731C1129.67 418.086 1127.61 421.142 1124.97 423.573L1130.43 424.605C1132.62 424.365 1134.64 423.113 1136.08 421.434C1137.52 419.754 1138.42 417.667 1138.99 415.527C1139.12 415.007 1139.25 414.46 1139.61 414.06C1139.9 413.728 1140.32 413.532 1140.69 413.292C1141.33 412.88 1141.87 412.312 1142.25 411.652C1141.83 411.96 1141.31 412.124 1140.79 412.108C1142.15 411.117 1143.45 410.045 1144.68 408.893C1145.82 407.825 1146.94 406.642 1147.44 405.158C1147 405.774 1146.41 406.278 1145.72 406.606C1147.31 404.338 1148.22 401.603 1148.29 398.84Z" fill="#E0E0E0"/>
<path d="M1118.73 424.231C1118.62 424.2 1118.5 424.248 1118.43 424.332C1118.36 424.419 1118.34 424.535 1118.36 424.647C1118.39 424.863 1118.58 425.047 1118.8 425.063C1119.02 425.079 1119.24 424.927 1119.29 424.715C1119.34 424.503 1119.22 424.259 1119.01 424.188C1118.88 424.14 1118.72 424.16 1118.58 424.184" fill="#E0E0E0"/>
<path d="M1116.73 424.865C1116.73 424.865 1115.32 425.129 1114.8 425.965C1114.28 426.801 1114.23 427.528 1114.35 427.564C1114.35 427.564 1114.56 427.117 1115.62 426.729C1116.69 426.341 1117.76 426.109 1117.76 426.109L1116.73 424.865Z" fill="#E0E0E0"/>
<path d="M1127.31 420.174C1125.45 418.539 1123.59 416.903 1121.73 415.268C1121.09 414.7 1120.44 414.128 1119.94 413.428C1118.89 411.973 1118.58 410.085 1117.53 408.63C1117.43 409.05 1117.32 409.473 1117.21 409.893C1116.91 408.814 1116.47 407.778 1115.88 406.826C1115.77 407.31 1115.65 407.798 1115.54 408.282C1115.2 406.782 1114.56 405.351 1113.66 404.103C1113.21 404.651 1112.97 405.371 1113 406.082C1112.51 404.771 1111.92 403.499 1111.24 402.271C1109.92 405.635 1110.49 409.429 1111.38 412.928C1111.56 413.612 1111.75 414.3 1112.1 414.912C1112.49 415.584 1113.07 416.127 1113.67 416.631C1116.21 418.807 1119.2 420.546 1121.18 423.241L1129.4 422.83C1129.03 422.654 1127.53 420.378 1127.31 420.174Z" fill="#E0E0E0"/>
<path d="M1129.47 422.83L1129.39 422.834C1129.43 422.85 1129.46 422.854 1129.47 422.83Z" fill="#E0E0E0"/>
<path d="M1138.99 415.488C1139.12 414.968 1139.25 414.42 1139.61 414.02C1139.9 413.689 1140.32 413.493 1140.69 413.253C1141.33 412.841 1141.87 412.273 1142.25 411.613C1141.83 411.921 1141.31 412.085 1140.79 412.069C1142.15 411.077 1143.45 410.006 1144.68 408.854C1145.83 407.786 1146.94 406.603 1147.44 405.119C1147.01 405.735 1146.41 406.239 1145.73 406.567C1147.32 404.307 1148.23 401.572 1148.3 398.809C1147.73 400.376 1147.04 401.9 1146.23 403.355C1145.98 403.799 1145.68 404.275 1145.19 404.431C1146.18 402.096 1146.71 399.565 1146.74 397.029C1146.46 397.877 1146.15 398.717 1145.81 399.541C1145.55 400.156 1145.27 400.768 1144.95 401.352C1144.08 402.884 1142.86 404.187 1141.66 405.475C1140.73 406.467 1139.8 407.458 1138.8 408.37L1143.57 406.075L1141.15 409.07L1143.83 407.814C1143.83 407.814 1139.47 411.525 1138.78 413.373C1138.08 415.22 1138.7 416.504 1138.7 416.504L1138.99 415.488Z" fill="#E0E0E0"/>
<path d="M1119.94 413.428C1118.89 411.973 1118.58 410.085 1117.53 408.63C1117.43 409.05 1117.32 409.473 1117.21 409.893C1116.91 408.814 1116.47 407.778 1115.88 406.826C1115.77 407.31 1115.65 407.798 1115.54 408.282C1115.2 406.782 1114.56 405.351 1113.66 404.103C1113.21 404.651 1112.97 405.371 1113 406.082C1112.51 404.771 1111.92 403.499 1111.24 402.271C1109.92 405.635 1110.49 409.429 1111.38 412.928C1111.56 413.612 1111.75 414.3 1112.1 414.912L1112.33 412.013C1112.33 412.013 1112.45 408.234 1113.49 409.713C1114.52 411.193 1116.58 413.592 1116.58 413.592L1116.14 411.021C1116.14 411.021 1117.59 413.24 1118.5 413.516C1119.42 413.784 1119.94 413.428 1119.94 413.428Z" fill="#E0E0E0"/>
<path d="M1131.26 413.901C1131.26 413.901 1131.26 413.897 1131.26 413.885C1131.3 413.873 1131.27 413.909 1131.27 413.917C1131.26 413.949 1131.24 414.001 1131.22 414.06C1131.17 414.184 1131.09 414.368 1130.99 414.6C1130.78 415.068 1130.47 415.736 1130.07 416.556C1129.67 417.376 1129.17 418.343 1128.58 419.399C1128.29 419.923 1127.97 420.475 1127.59 421.019C1127.4 421.29 1127.21 421.566 1126.94 421.81C1126.74 421.93 1126.57 421.938 1126.4 421.982C1126.23 422.014 1126.06 422.05 1125.88 422.074C1123.13 422.494 1120.61 422.706 1118.82 422.97C1118.37 423.018 1118.05 423.278 1117.79 423.514C1117.53 423.758 1117.33 424.002 1117.18 424.202C1116.87 424.605 1116.73 424.853 1116.71 424.841C1116.71 424.837 1116.73 424.773 1116.8 424.653C1116.86 424.533 1116.96 424.362 1117.11 424.15C1117.25 423.938 1117.44 423.686 1117.7 423.422C1117.95 423.174 1118.31 422.874 1118.79 422.81C1120.6 422.502 1123.1 422.266 1125.85 421.846C1126.02 421.822 1126.19 421.786 1126.36 421.758C1126.52 421.722 1126.7 421.686 1126.79 421.634C1127.03 421.426 1127.22 421.15 1127.41 420.89C1127.78 420.359 1128.1 419.815 1128.4 419.295C1129 418.251 1129.51 417.292 1129.93 416.484C1130.33 415.696 1130.66 415.048 1130.91 414.564C1131.01 414.356 1131.1 414.184 1131.18 414.04C1131.21 413.992 1131.23 413.949 1131.25 413.905C1131.26 413.893 1131.26 413.869 1131.27 413.889C1131.27 413.897 1131.26 413.901 1131.26 413.901Z" fill="#E0E0E0"/>
<path d="M1141.14 408.87C1141.15 408.874 1141.12 408.93 1141.07 409.038C1141.02 409.146 1140.93 409.293 1140.81 409.481C1140.56 409.853 1140.15 410.361 1139.54 410.877C1138.92 411.397 1138.13 411.921 1137.22 412.449C1136.76 412.713 1136.29 412.984 1135.84 413.328C1135.39 413.668 1134.99 414.088 1134.66 414.584C1134 415.58 1133.64 416.687 1133.23 417.655C1132.84 418.635 1132.38 419.479 1131.92 420.13C1131.46 420.786 1131.03 421.27 1130.71 421.586C1130.56 421.746 1130.43 421.862 1130.34 421.938C1130.25 422.014 1130.2 422.046 1130.2 422.046C1130.19 422.034 1130.36 421.858 1130.65 421.522C1130.94 421.19 1131.35 420.694 1131.79 420.034C1132.22 419.375 1132.66 418.547 1133.04 417.567C1133.44 416.603 1133.79 415.484 1134.48 414.448C1134.82 413.932 1135.25 413.488 1135.71 413.14C1136.18 412.788 1136.66 412.521 1137.12 412.257C1138.03 411.741 1138.83 411.237 1139.44 410.741C1140.06 410.249 1140.48 409.769 1140.75 409.417C1141 409.074 1141.12 408.858 1141.14 408.87Z" fill="#E0E0E0"/>
<path d="M1130.16 426.477C1130.19 426.533 1129.74 426.733 1129.16 426.645C1128.59 426.561 1128.21 426.241 1128.25 426.193C1128.29 426.137 1128.67 426.345 1129.19 426.417C1129.71 426.501 1130.14 426.413 1130.16 426.477Z" fill="#E0E0E0"/>
<path d="M1132.32 426.129C1132.35 426.181 1131.61 426.505 1130.64 426.425C1129.68 426.357 1129 425.929 1129.03 425.881C1129.06 425.817 1129.75 426.137 1130.66 426.197C1131.57 426.273 1132.3 426.065 1132.32 426.129Z" fill="#E0E0E0"/>
<path d="M1138.28 426.972C1137.42 426.912 1136.64 426.86 1135.95 426.812C1135.35 426.772 1134.98 426.757 1134.98 426.789C1134.97 426.82 1135.34 426.892 1135.93 426.972C1136.53 427.052 1137.35 427.14 1138.26 427.2C1139.18 427.26 1140 427.28 1140.61 427.272C1141.21 427.268 1141.58 427.24 1141.58 427.212C1141.58 427.18 1141.21 427.148 1140.61 427.112C1139.92 427.072 1139.14 427.024 1138.28 426.972Z" fill="#E0E0E0"/>
<path d="M1747.49 360.601C1734.95 357.382 1721.73 360.293 1709.25 363.732C1710.28 346.817 1700.68 329.706 1685.71 321.772C1670.73 313.839 1651.19 315.506 1637.77 325.863C1625.59 293.728 1600.09 265.664 1567.23 255.591C1534.38 245.518 1494.77 256.315 1475.48 284.767C1457.46 311.367 1462.45 351.948 1487.38 371.362C1442.72 344.602 1407.97 379.352 1412.1 417.009C1513.4 414.026 1619.74 418.588 1721.04 415.605C1731.44 415.297 1742.11 414.938 1751.7 410.919C1761.29 406.9 1769.72 398.354 1770.47 387.977C1771.41 375.069 1760.02 363.82 1747.49 360.601Z" fill="#EBEBEB"/>
<path d="M2724.54 163.769C2709.44 159.891 2693.51 163.398 2678.48 167.54C2679.72 147.162 2668.16 126.552 2650.12 116.995C2632.08 107.438 2608.53 109.445 2592.37 121.921C2577.7 83.2086 2546.99 49.4063 2507.4 37.2698C2467.82 25.1333 2420.11 38.1416 2396.88 72.4157C2375.17 104.458 2381.19 153.34 2411.22 176.726C2357.42 144.491 2315.56 186.351 2320.53 231.714L2687.05 234.169C2699.57 233.801 2717.02 233.733 2728.57 228.895C2740.13 224.052 2752.29 215.411 2752.22 196.744C2752.17 181.156 2739.64 167.648 2724.54 163.769Z" fill="#EBEBEB"/>
<path d="M1352.98 173.546C1333.01 168.416 1311.93 173.055 1292.05 178.533C1293.69 151.577 1278.4 124.313 1254.53 111.668C1230.67 99.0239 1199.52 101.683 1178.14 118.186C1158.73 66.9771 1118.11 22.2619 1065.74 6.20656C1013.38 -9.84482 950.265 7.36223 919.542 52.6972C890.818 95.081 898.776 159.75 938.501 190.686C867.333 148.042 811.961 203.418 818.543 263.425L1303.38 266.676C1319.96 266.188 1343.03 266.1 1358.32 259.698C1373.61 253.292 1389.69 241.863 1389.61 217.166C1389.53 196.548 1372.95 178.681 1352.98 173.546Z" fill="#F5F5F5"/>
<path d="M535.324 104.503C524.743 101.784 513.578 104.243 503.045 107.147C503.917 92.8666 495.815 78.4228 483.171 71.7247C470.531 65.0266 454.027 66.4342 442.703 75.1797C432.418 48.0515 410.896 24.3623 383.16 15.8568C355.424 7.35523 321.985 16.4686 305.71 40.4857C290.494 62.9392 294.709 97.1974 315.755 113.585C278.054 90.9952 248.718 120.331 252.205 152.118L509.048 153.841C517.825 153.581 530.05 153.537 538.151 150.142C546.249 146.751 554.77 140.693 554.727 127.613C554.686 116.688 545.901 107.223 535.324 104.503Z" fill="#EBEBEB"/>
<path d="M2015.24 148.597C2007.71 146.661 1999.77 148.409 1992.27 150.476C1992.89 140.315 1987.13 130.034 1978.13 125.268C1969.13 120.501 1957.39 121.505 1949.33 127.723C1942.01 108.416 1926.69 91.5572 1906.95 85.507C1887.22 79.4567 1863.42 85.9428 1851.83 103.034C1841.01 119.013 1844 143.394 1858.98 155.059C1832.15 138.984 1811.27 159.858 1813.75 182.483L1996.54 183.707C2002.79 183.523 2011.49 183.491 2017.25 181.075C2023.02 178.66 2029.08 174.349 2029.05 165.04C2029.02 157.27 2022.77 150.532 2015.24 148.597Z" fill="#FAFAFA"/>
<path d="M124.039 481.215C124.039 731.367 131.277 933.741 131.277 933.741L2829.91 929.538L2579.62 622.722L2165.8 686.916L1527.11 795.888L1412.08 834.589L1106.02 772.807L124.039 481.215Z" fill="#EBEBEB"/>
</svg>
