<svg width="2900" height="1813" viewBox="0 0 2900 1813" fill="none" xmlns="http://www.w3.org/2000/svg">
<g opacity="0.2">
<path d="M1824.76 1076.13C1825.24 1076.17 1825.34 1076.18 1825.01 1076.15C1824.95 1076.14 1824.86 1076.14 1824.76 1076.13Z" fill="#263238"/>
<path d="M1096 1076.35C1097.36 1076.7 1098.77 1077.05 1100.22 1077.43L1099.86 1075.61C1098.63 1075.85 1097.35 1076.09 1096 1076.35Z" fill="#263238"/>
<path d="M910.289 1061.54C911.642 1061.88 913.051 1062.24 914.504 1062.6L914.144 1060.78C912.915 1061.02 911.638 1061.27 910.289 1061.54Z" fill="#263238"/>
<path d="M692.68 1061.49L693.26 1061.64C693.244 1061.55 693.228 1061.47 693.212 1061.39L692.68 1061.49Z" fill="#263238"/>
<path d="M725.912 1058.35L728.93 1059.13L728.67 1057.83L725.912 1058.35Z" fill="#263238"/>
<path d="M1231.17 1075.41L1230.82 1076.49C1231.45 1076.65 1232.12 1076.82 1232.77 1076.99L1232.41 1075.17C1232 1075.25 1231.6 1075.33 1231.17 1075.41Z" fill="#263238"/>
<path d="M745.52 1060.5L745.428 1060.04L742.67 1060.57L747.974 1061.93L747.638 1062.94L749.519 1062.71L749.331 1061.68L745.52 1060.5Z" fill="#263238"/>
<path d="M498.756 959.673L23 941.832V1029.58C23 1029.58 272.985 1032.96 536.151 1036.56C537.384 1042.93 539.085 1051.71 541.127 1062.25L541.155 1062.4L541.335 1062.46C542.72 1062.89 544.153 1063.34 545.594 1063.79C544.377 1063.93 543.164 1064.08 541.907 1064.23L541.591 1064.27L541.631 1064.54C543.212 1074.83 544.986 1086.39 546.871 1098.65L547.115 1100.25L547.619 1098.72C548.1 1097.25 548.584 1095.77 549.073 1094.28C551.346 1087.32 553.552 1080.56 555.617 1074.23L555.705 1073.95L555.373 1073.85C553.828 1073.39 552.323 1072.94 550.874 1072.51C552.499 1072.22 554.104 1071.94 555.581 1071.69L555.785 1071.65L555.841 1071.49C558.391 1063.77 560.749 1056.65 562.814 1050.41L563.679 1054.76L568.026 1056.1L564.099 1056.58L568.306 1083.76L574.687 1064.25L570.148 1062.89L574.879 1062.07L581.212 1043.11L575.516 1041.64L581.44 1040.51L582.557 1037.2C585.619 1037.24 588.677 1037.29 591.739 1037.33L595.878 1055.16L603.104 1057.08L596.579 1057.76L603.572 1096.45L614.176 1068.68L606.63 1066.74L614.496 1065.57L622.266 1045.64L624.435 1054.99L628.782 1056.14L624.855 1056.55L629.062 1079.83L635.443 1063.12L630.904 1061.95L635.635 1061.25L641.968 1045L636.272 1043.75L642.196 1042.79L644.069 1038.04C645.899 1038.07 647.732 1038.09 649.561 1038.12C650.742 1043.35 652.275 1050.13 654.073 1058.07L654.1 1058.2L654.281 1058.25C655.666 1058.62 657.099 1059 658.54 1059.39C657.323 1059.51 656.11 1059.64 654.849 1059.77L654.533 1059.8L654.573 1060.03C656.154 1068.84 657.927 1078.74 659.813 1089.24L660.057 1090.62L660.561 1089.3C661.042 1088.04 661.526 1086.77 662.014 1085.5C664.288 1079.54 666.493 1073.75 668.559 1068.33L668.647 1068.09L668.315 1068.01C666.77 1067.61 665.265 1067.23 663.815 1066.85C665.445 1066.61 667.046 1066.37 668.523 1066.15L668.727 1066.12L668.783 1065.98C671.713 1058.39 674.391 1051.46 676.665 1045.58L676.737 1045.39L676.465 1045.33C674.287 1044.85 672.218 1044.4 670.228 1043.97C672.55 1043.58 674.743 1043.22 676.733 1042.89L676.857 1042.87L676.889 1042.78C677.193 1041.99 677.477 1041.24 677.758 1040.52L680.84 1053.79L685.187 1054.95L681.26 1055.35L685.467 1078.63L691.848 1061.92L687.309 1060.75L692.04 1060.05L695.294 1051.7C695.55 1052.83 695.811 1053.99 696.083 1055.19L696.107 1055.3L696.263 1055.34C697.464 1055.66 698.709 1055.99 699.958 1056.33C698.901 1056.43 697.848 1056.54 696.759 1056.66L696.483 1056.68L696.519 1056.88C697.888 1064.52 699.429 1073.11 701.062 1082.23L701.275 1083.42L701.711 1082.27C702.127 1081.18 702.547 1080.08 702.972 1078.98C704.941 1073.8 706.855 1068.78 708.648 1064.08L708.724 1063.87L708.436 1063.8C707.095 1063.46 705.79 1063.12 704.533 1062.8C705.638 1062.64 706.711 1062.48 707.747 1062.32L707.927 1063.32L708.344 1062.23C708.432 1062.22 708.528 1062.2 708.616 1062.19L708.792 1062.16L708.84 1062.04C711.054 1056.31 713.095 1051.02 714.888 1046.38L715.637 1049.61L719.408 1050.61L716.001 1050.97L719.652 1071.16L725.184 1056.67L721.245 1055.65L725.352 1055.05L729.699 1043.89L731.633 1052.23L735.68 1053.3L732.025 1053.68L735.944 1075.36L741.884 1059.8L737.657 1058.72L742.064 1058.06L746.571 1046.5L749.313 1061.67L751.775 1062.44L749.502 1062.71L752.179 1077.53L761.378 1053.43L754.829 1051.75L761.654 1050.74L765.953 1039.71C767.258 1039.73 768.559 1039.75 769.864 1039.77L770.281 1041.56L774.051 1042.56L770.645 1042.92L774.295 1063.11L779.831 1048.62L775.893 1047.6L780 1047L782.746 1039.95C786.844 1040 790.951 1040.06 795.062 1040.12C795.367 1041.45 795.671 1042.81 795.995 1044.24L796.023 1044.35L796.179 1044.39C797.38 1044.71 798.625 1045.05 799.874 1045.38C798.821 1045.49 797.764 1045.6 796.676 1045.71L796.399 1045.74L796.435 1045.93C797.804 1053.58 799.346 1062.17 800.979 1071.28L801.191 1072.47L801.627 1071.32C802.044 1070.23 802.464 1069.13 802.888 1068.02C804.858 1062.85 806.771 1057.83 808.564 1053.12L808.64 1052.92L808.352 1052.85C807.011 1052.5 805.706 1052.17 804.449 1051.85C805.862 1051.64 807.251 1051.43 808.532 1051.24L808.708 1051.21L808.756 1051.08C810.221 1047.29 811.61 1043.7 812.903 1040.35C815.001 1040.38 817.098 1040.4 819.196 1040.44L819.216 1040.52L822.987 1041.52L819.58 1041.87L823.231 1062.07L828.767 1047.57L824.828 1046.56L828.935 1045.95L831.021 1040.6C834.435 1040.65 837.849 1040.7 841.268 1040.74L842.721 1048.79L845.767 1040.81C851.139 1040.88 856.515 1040.96 861.899 1041.03L866.742 1067.84L874.348 1047.92L868.936 1046.52L874.576 1045.69L876.313 1041.23C881.953 1041.31 887.593 1041.39 893.241 1041.47C894.106 1045.29 895.123 1049.79 896.26 1054.82L896.284 1054.94L896.44 1054.98C897.641 1055.3 898.886 1055.63 900.134 1055.96C899.078 1056.07 898.025 1056.18 896.936 1056.29L896.66 1056.32L896.696 1056.51C898.065 1064.16 899.606 1072.75 901.239 1081.86L901.451 1083.05L901.888 1081.91C902.304 1080.82 902.724 1079.72 903.149 1078.61C905.122 1073.44 907.035 1068.41 908.825 1063.71L908.905 1063.5L908.617 1063.43C907.276 1063.09 905.971 1062.76 904.714 1062.43C906.127 1062.22 907.516 1062.01 908.801 1061.82L908.977 1061.79L909.025 1061.67C911.239 1055.94 913.284 1050.65 915.073 1046.01L915.826 1049.25L919.596 1050.25L916.19 1050.6L919.841 1070.8L925.377 1056.3L921.438 1055.29L925.545 1054.68L930.496 1041.98C936.693 1042.07 942.889 1042.16 949.082 1042.24L951.968 1043.01L946.308 1043.6L952.376 1077.17L961.575 1053.07L955.026 1051.39L961.851 1050.37L964.937 1042.46C966.935 1042.49 968.932 1042.52 970.934 1042.54L970.842 1042.55L974.492 1062.75L980.028 1048.25L976.089 1047.24L980.196 1046.63L981.729 1042.7C986.477 1042.76 991.224 1042.83 995.968 1042.89C996.044 1043.23 996.116 1043.54 996.192 1043.88L996.22 1043.99L996.376 1044.03C997.577 1044.35 998.822 1044.69 1000.07 1045.02C999.014 1045.13 997.961 1045.23 996.872 1045.35L996.596 1045.37L996.632 1045.57C998.001 1053.22 999.542 1061.81 1001.18 1070.92L1001.39 1072.11L1001.82 1070.96C1002.24 1069.87 1002.66 1068.77 1003.08 1067.66C1005.05 1062.49 1006.97 1057.47 1008.76 1052.76L1008.84 1052.56L1008.55 1052.49C1007.21 1052.14 1005.91 1051.81 1004.65 1051.49C1006.06 1051.28 1007.45 1051.07 1008.74 1050.88L1008.91 1050.85L1008.96 1050.73C1009.98 1048.09 1010.96 1045.55 1011.9 1043.11C1014.63 1043.15 1017.36 1043.19 1020.09 1043.22L1023.44 1061.71L1028.97 1047.21L1025.03 1046.2L1029.14 1045.59L1030.01 1043.36C1034.02 1043.42 1038.03 1043.47 1042.04 1043.53L1042.93 1048.43L1044.78 1043.57C1050.75 1043.65 1056.72 1043.73 1062.67 1043.81L1066.95 1067.47L1074.55 1047.55L1069.14 1046.16L1074.78 1045.33L1075.3 1043.99C1075.77 1044 1076.24 1044.01 1076.7 1044.01C1076.93 1045.07 1077.21 1046.32 1077.53 1047.78C1078.6 1052.55 1080.14 1059.33 1081.99 1067.52L1082.01 1067.63L1082.17 1067.67C1083.37 1068 1084.61 1068.33 1085.86 1068.66C1084.8 1068.77 1083.75 1068.88 1082.66 1068.99L1082.39 1069.02L1082.42 1069.21C1083.79 1076.86 1085.33 1085.45 1086.97 1094.56L1087.18 1095.75L1087.61 1094.6C1088.03 1093.51 1088.45 1092.41 1088.88 1091.3C1090.84 1086.13 1092.76 1081.11 1094.55 1076.41L1094.63 1076.2L1094.34 1076.13C1093 1075.78 1091.7 1075.45 1090.44 1075.13C1091.85 1074.92 1093.24 1074.71 1094.53 1074.52L1094.7 1074.49L1094.75 1074.37C1096.96 1068.64 1099.01 1063.35 1100.8 1058.71L1101.55 1061.94L1105.32 1062.94L1101.91 1063.3L1105.56 1083.49L1111.1 1069L1107.16 1067.99L1111.27 1067.38L1116.76 1053.29L1111.82 1052.2L1116.96 1051.36L1119.63 1044.61C1122.84 1044.66 1126.06 1044.7 1129.27 1044.75L1131.43 1054.04L1137.69 1055.7L1132.03 1056.29L1138.1 1089.86L1147.3 1065.77L1140.75 1064.08L1147.57 1063.07L1154.31 1045.78L1156.2 1053.9L1159.97 1054.9L1156.56 1055.25L1160.21 1075.45L1165.75 1060.95L1161.81 1059.94L1165.91 1059.33L1171.37 1045.34C1174.04 1045.38 1176.72 1045.42 1179.4 1045.45C1180.15 1048.76 1180.99 1052.5 1181.91 1056.57L1181.94 1056.69L1182.09 1056.73C1183.3 1057.05 1184.54 1057.38 1185.79 1057.72C1184.74 1057.82 1183.68 1057.93 1182.59 1058.04L1182.31 1058.07L1182.35 1058.27C1183.72 1065.91 1185.26 1074.5 1186.89 1083.61L1187.11 1084.8L1187.54 1083.66C1187.96 1082.57 1188.38 1081.47 1188.8 1080.36C1190.77 1075.19 1192.68 1070.16 1194.48 1065.46L1194.56 1065.26L1194.27 1065.18C1192.93 1064.84 1191.62 1064.5 1190.36 1064.18C1191.78 1063.97 1193.17 1063.76 1194.45 1063.57L1194.63 1063.54L1194.68 1063.42C1197.21 1056.85 1199.53 1050.85 1201.5 1045.75C1202.16 1045.76 1202.83 1045.77 1203.49 1045.78L1205.14 1052.85L1208.91 1053.85L1205.5 1054.21L1209.15 1074.4L1213.57 1062.83C1213.89 1064.22 1214.21 1065.65 1214.55 1067.14L1214.57 1067.26L1214.73 1067.3C1215.93 1067.62 1217.17 1067.95 1218.42 1068.28C1217.37 1068.39 1216.31 1068.5 1215.22 1068.61L1214.95 1068.64L1214.98 1068.84C1216.35 1076.48 1217.89 1085.07 1219.53 1094.18L1219.74 1095.37L1220.17 1094.23C1220.59 1093.14 1221.01 1092.04 1221.43 1090.93C1223.41 1085.76 1225.32 1080.73 1227.11 1076.03L1227.19 1075.82L1226.9 1075.75C1225.56 1075.4 1224.26 1075.07 1223 1074.75C1224.41 1074.54 1225.8 1074.33 1227.09 1074.14L1227.26 1074.11L1227.31 1073.99C1229.52 1068.26 1231.57 1062.97 1233.36 1058.33L1234.11 1061.56L1237.88 1062.56L1234.47 1062.92L1238.12 1083.11L1243.66 1068.62L1239.72 1067.61L1243.83 1067L1248.24 1055.68L1251.2 1072.08L1252.33 1072.43L1251.28 1072.55L1252.66 1080.16L1260.26 1060.25L1254.85 1058.85L1260.49 1058.02L1263.31 1050.79L1263.98 1053.66L1270.25 1055.32L1264.59 1055.91L1270.65 1089.48L1279.85 1065.38L1273.3 1063.7L1280.13 1062.69L1286.27 1046.94C1286.59 1046.94 1286.91 1046.95 1287.23 1046.95L1288.75 1053.51L1292.52 1054.51L1289.12 1054.87L1292.77 1075.06L1298.3 1060.57L1294.36 1059.55L1298.47 1058.94L1303.06 1047.18C1306.2 1047.22 1309.33 1047.27 1312.46 1047.31C1313.08 1050.04 1313.75 1053 1314.47 1056.19L1314.49 1056.31L1314.65 1056.35C1315.85 1056.67 1317.09 1057 1318.34 1057.33C1317.28 1057.44 1316.23 1057.55 1315.14 1057.66L1314.87 1057.69L1314.9 1057.88C1316.27 1065.53 1317.81 1074.12 1319.45 1083.23L1319.66 1084.42L1320.09 1083.27C1320.51 1082.19 1320.93 1081.08 1321.36 1079.98C1323.32 1074.8 1325.24 1069.78 1327.03 1065.08L1327.11 1064.87L1326.82 1064.8C1325.48 1064.46 1324.18 1064.12 1322.92 1063.8C1324.33 1063.59 1325.72 1063.38 1327 1063.19L1327.18 1063.16L1327.23 1063.04C1329.41 1057.4 1331.42 1052.18 1333.19 1047.6C1334.32 1047.61 1335.44 1047.63 1336.57 1047.64L1337.69 1052.47L1341.46 1053.47L1338.05 1053.83L1341.7 1074.02L1347.23 1059.53L1343.29 1058.51L1347.4 1057.9L1351.32 1047.86C1353.84 1047.89 1356.36 1047.93 1358.88 1047.96L1361.19 1060.74L1365.47 1049.52L1362.42 1048.74L1365.6 1048.26L1365.68 1048.06C1370.84 1048.13 1375.99 1048.21 1381.1 1048.28L1381.76 1051.12L1385.27 1052.05L1382.1 1052.38L1385.5 1071.19L1390.65 1057.69L1386.98 1056.74L1390.81 1056.17L1393.81 1048.46C1398.38 1046.87 1820.76 1029.21 1830.38 1029.7C1803.06 1027.83 498.756 959.673 498.756 959.673ZM557.282 1045.78C558.832 1045.48 560.317 1045.19 561.726 1044.92L562.142 1047.02C560.465 1046.59 558.84 1046.18 557.282 1045.78Z" fill="#263238"/>
<path d="M1210.74 1080.58L1212.8 1081.19C1212.74 1080.88 1212.67 1080.56 1212.61 1080.25L1210.74 1080.58Z" fill="#263238"/>
<path d="M1249.04 1071.43L1244.37 1072.32L1247.66 1073.16L1247.64 1073.02L1251.28 1072.57L1251.19 1072.1L1249.04 1071.43Z" fill="#263238"/>
</g>
<path d="M441.595 1023.11C441.595 1023.11 1855.54 1029.73 1835.8 1029.73C1816.05 1029.73 23 878.686 23 878.686V1023.11H441.595Z" fill="#263238"/>
<path d="M838.611 912.398L842.638 933.59L838.611 934.606L842.638 935.911L846.665 956.522L841.633 957.539L846.665 959.28L849.351 972.778H825.189L832.403 942.588L836.261 941.572L832.907 940.703L838.611 912.398Z" fill="#263238"/>
<path d="M882.549 908.879L888.081 937.996L882.549 939.393L888.081 941.186L893.613 969.507L886.7 970.904L893.613 973.297L897.304 991.843H864.104L874.019 950.361L879.319 948.964L874.707 947.767L882.549 908.879Z" fill="#263238"/>
<path d="M856.669 933.359L859.787 949.763L856.669 950.552L859.787 951.561L862.901 967.516L859.007 968.301L862.901 969.65L864.983 980.101H846.277L851.861 956.728L854.852 955.944L852.254 955.267L856.669 933.359Z" fill="#263238"/>
<path d="M789.975 905.682L794.001 926.873L789.975 927.886L794.001 929.195L798.028 949.802L792.993 950.818L798.028 952.56L800.714 966.057H776.549L783.766 935.871L787.625 934.855L784.27 933.982L789.975 905.682Z" fill="#263238"/>
<path d="M736.369 888.379L740.4 909.566L736.369 910.583L740.4 911.892L744.427 932.499L739.391 933.516L744.427 935.257L747.109 948.754H722.947L730.165 918.565L734.023 917.552L730.665 916.679L736.369 888.379Z" fill="#263238"/>
<path d="M747.113 983.191L759.106 933.007L765.523 931.317L759.943 929.868L769.429 882.822L776.122 918.048L769.429 919.737L776.122 921.907L782.815 956.167L774.449 957.857L782.815 960.755L787.278 983.191" fill="#263238"/>
<path d="M800.873 972.779L809.928 934.888L814.771 933.615L810.56 932.518L817.721 896.996L822.773 923.591L817.721 924.868L822.773 926.51L827.829 952.376L821.512 953.649L827.829 955.839L831.199 972.779" fill="#263238"/>
<path d="M831.201 972.776C831.193 972.776 831.165 972.684 831.117 972.492C831.065 972.272 831.001 971.996 830.921 971.647C830.753 970.859 830.517 969.758 830.212 968.345C829.608 965.415 828.735 961.196 827.638 955.872L827.767 956.02C825.849 955.367 823.716 954.639 821.438 953.862L820.653 953.594L821.466 953.426C823.455 953.018 825.569 952.581 827.779 952.129L827.582 952.421C826.109 944.964 824.372 936.186 822.471 926.567L822.679 926.803C821.098 926.294 819.373 925.734 817.623 925.17L816.578 924.829L817.647 924.561C819.228 924.161 820.954 923.725 822.699 923.28L822.463 923.653C821.154 916.776 819.753 909.438 818.316 901.877C818.008 900.26 817.703 898.65 817.399 897.057L818.052 897.061C815.466 909.83 813.024 921.863 810.854 932.575L810.638 932.231C812.075 932.607 813.472 932.971 814.849 933.331L815.91 933.608L814.849 933.884C813.192 934.316 811.579 934.737 810.002 935.149L810.198 934.949C807.42 946.361 805.122 955.812 803.505 962.453C802.692 965.719 802.048 968.297 801.6 970.094C801.379 970.943 801.207 971.607 801.079 972.096C800.955 972.548 800.887 972.78 800.875 972.776C800.863 972.772 800.903 972.536 800.999 972.076C801.107 971.583 801.255 970.911 801.44 970.054C801.852 968.249 802.444 965.659 803.197 962.377C804.758 955.72 806.98 946.249 809.662 934.817L809.698 934.656L809.858 934.612C811.431 934.196 813.04 933.768 814.697 933.327V933.88C813.32 933.528 811.919 933.167 810.482 932.795L810.21 932.727L810.266 932.451C812.415 921.735 814.829 909.694 817.391 896.921L817.723 895.252L818.04 896.925C818.344 898.518 818.648 900.128 818.956 901.745C820.389 909.306 821.782 916.648 823.083 923.524L823.139 923.825L822.843 923.897C821.094 924.337 819.369 924.769 817.787 925.166L817.807 924.557C819.557 925.126 821.282 925.69 822.859 926.202L823.031 926.258L823.067 926.439C824.925 936.07 826.622 944.852 828.063 952.317L828.111 952.561L827.867 952.609C825.653 953.05 823.54 953.466 821.546 953.862L821.574 953.426C823.844 954.223 825.969 954.967 827.883 955.64L827.991 955.676L828.011 955.784C829.032 961.12 829.844 965.351 830.404 968.293C830.665 969.714 830.869 970.823 831.013 971.615C831.073 971.967 831.121 972.252 831.157 972.472C831.197 972.676 831.209 972.776 831.201 972.776Z" fill="#263238"/>
<path d="M702.453 946.511L711.508 908.62L716.351 907.347L712.14 906.254L719.301 870.729L724.357 897.328L719.301 898.601L724.357 900.242L729.409 926.109L723.092 927.385L729.409 929.571L732.779 946.511" fill="#263238"/>
<path d="M732.775 946.511C732.767 946.511 732.739 946.419 732.691 946.226C732.639 946.006 732.575 945.73 732.495 945.382C732.327 944.597 732.091 943.493 731.787 942.079C731.182 939.149 730.31 934.93 729.213 929.606L729.341 929.755C727.423 929.102 725.29 928.374 723.012 927.597L722.228 927.329L723.04 927.161C725.03 926.752 727.143 926.316 729.353 925.864L729.157 926.156C727.684 918.698 725.946 909.92 724.045 900.301L724.253 900.537C722.672 900.029 720.947 899.469 719.198 898.904L718.149 898.564L719.218 898.292C720.799 897.891 722.524 897.455 724.269 897.011L724.033 897.383C722.724 890.506 721.323 883.169 719.886 875.607C719.578 873.99 719.274 872.381 718.969 870.788L719.622 870.792C717.036 883.561 714.594 895.594 712.425 906.306L712.208 905.961C713.646 906.338 715.043 906.702 716.42 907.062L717.48 907.338L716.42 907.614C714.758 908.047 713.149 908.467 711.572 908.879L711.768 908.679C708.99 920.087 706.688 929.542 705.075 936.183C704.263 939.449 703.618 942.027 703.17 943.825C702.95 944.673 702.778 945.338 702.65 945.826C702.525 946.278 702.457 946.507 702.445 946.507C702.433 946.503 702.473 946.267 702.569 945.806C702.678 945.314 702.826 944.641 703.01 943.785C703.422 941.979 704.015 939.394 704.767 936.107C706.328 929.45 708.55 919.979 711.232 908.547L711.268 908.387L711.428 908.343C713.001 907.927 714.61 907.498 716.267 907.054V907.607C714.89 907.254 713.489 906.894 712.052 906.522L711.78 906.454L711.836 906.177C713.986 895.462 716.399 883.421 718.961 870.648L719.294 868.979L719.61 870.652C719.914 872.245 720.218 873.854 720.527 875.471C721.96 883.033 723.353 890.374 724.654 897.251L724.71 897.551L724.413 897.623C722.668 898.064 720.939 898.496 719.358 898.892L719.378 898.284C721.127 898.852 722.852 899.417 724.429 899.929L724.601 899.985L724.637 900.165C726.495 909.796 728.192 918.578 729.633 926.044L729.681 926.288L729.437 926.336C727.223 926.776 725.11 927.193 723.116 927.589L723.144 927.153C725.414 927.949 727.54 928.694 729.453 929.366L729.561 929.402L729.581 929.51C730.602 934.846 731.414 939.077 731.975 942.019C732.235 943.44 732.439 944.549 732.583 945.342C732.643 945.694 732.687 945.974 732.727 946.198C732.775 946.411 732.787 946.511 732.775 946.511Z" fill="#263238"/>
<path d="M1038 934.383L1042.03 955.574L1038 956.591L1042.03 957.896L1046.05 978.507L1041.02 979.523L1046.05 981.265L1048.74 994.762H1024.58L1031.79 964.573L1035.65 963.556L1032.29 962.687L1038 934.383Z" fill="#263238"/>
<path d="M1081.93 930.854L1087.47 959.971L1081.93 961.368L1087.47 963.161L1093 991.481L1086.08 992.878L1093 995.272L1096.69 1013.82H1063.49L1073.4 972.336L1078.7 970.939L1074.09 969.742L1081.93 930.854Z" fill="#263238"/>
<path d="M1056.04 955.34L1059.16 971.744L1056.04 972.532L1059.16 973.541L1062.28 989.497L1058.38 990.285L1062.28 991.63L1064.36 1002.08H1045.65L1051.24 978.713L1054.23 977.924L1051.63 977.252L1056.04 955.34Z" fill="#263238"/>
<path d="M989.357 927.662L993.384 948.853L989.357 949.87L993.384 951.175L997.411 971.786L992.376 972.799L997.411 974.544L1000.1 988.042H975.932L983.149 957.852L987.008 956.835L983.653 955.963L989.357 927.662Z" fill="#263238"/>
<path d="M935.742 910.363L939.773 931.551L935.742 932.567L939.773 933.876L943.8 954.483L938.764 955.5L943.8 957.241L946.482 970.739H922.32L929.538 940.553L933.396 939.536L930.038 938.664L935.742 910.363Z" fill="#263238"/>
<path d="M946.486 1005.18L958.483 954.991L964.896 953.302L959.32 951.857L968.802 904.807L975.495 940.032L968.802 941.721L975.495 943.891L982.192 978.152L973.822 979.841L982.192 982.739L986.655 1005.18" fill="#263238"/>
<path d="M1000.24 994.759L1009.3 956.868L1014.14 955.595L1009.93 954.498L1017.09 918.977L1022.14 945.572L1017.09 946.849L1022.14 948.49L1027.2 974.357L1020.88 975.634L1027.2 977.819L1030.57 994.759" fill="#263238"/>
<path d="M1030.57 994.755C1030.56 994.755 1030.53 994.663 1030.49 994.47C1030.43 994.25 1030.37 993.974 1030.29 993.626C1030.12 992.837 1029.88 991.736 1029.58 990.323C1028.98 987.393 1028.1 983.174 1027.01 977.85L1027.13 977.998C1025.22 977.346 1023.08 976.617 1020.81 975.841L1020.02 975.573L1020.83 975.405C1022.82 974.996 1024.94 974.56 1027.15 974.108L1026.95 974.4C1025.47 966.942 1023.74 958.164 1021.84 948.545L1022.04 948.781C1020.46 948.273 1018.74 947.713 1016.99 947.148L1015.94 946.808L1017.01 946.536C1018.59 946.135 1020.31 945.699 1022.06 945.255L1021.82 945.627C1020.51 938.75 1019.12 931.413 1017.68 923.851C1017.37 922.234 1017.06 920.625 1016.76 919.032L1017.41 919.036C1014.83 931.805 1012.38 943.838 1010.21 954.549L1010 954.205C1011.44 954.581 1012.83 954.946 1014.21 955.306L1015.27 955.582L1014.21 955.859C1012.55 956.291 1010.94 956.711 1009.36 957.123L1009.56 956.923C1006.78 968.331 1004.48 977.786 1002.87 984.427C1002.05 987.694 1001.41 990.271 1000.96 992.069C1000.74 992.917 1000.57 993.582 1000.44 994.07C1000.32 994.522 1000.25 994.755 1000.24 994.751C1000.22 994.747 1000.27 994.51 1000.36 994.05C1000.47 993.558 1000.62 992.885 1000.8 992.029C1001.22 990.223 1001.81 987.633 1002.56 984.351C1004.12 977.694 1006.34 968.223 1009.03 956.791L1009.06 956.631L1009.22 956.587C1010.8 956.171 1012.4 955.742 1014.06 955.302V955.859C1012.68 955.506 1011.28 955.142 1009.85 954.774L1009.57 954.706L1009.63 954.429C1011.78 943.714 1014.19 931.673 1016.76 918.9L1017.09 917.23L1017.41 918.904C1017.71 920.497 1018.02 922.106 1018.32 923.723C1019.76 931.285 1021.15 938.626 1022.45 945.503L1022.51 945.803L1022.21 945.879C1020.47 946.32 1018.74 946.752 1017.16 947.148L1017.18 946.54C1018.93 947.108 1020.65 947.672 1022.23 948.185L1022.4 948.241L1022.44 948.421C1024.29 958.052 1025.99 966.834 1027.43 974.3L1027.48 974.544L1027.24 974.592C1025.02 975.032 1022.91 975.449 1020.91 975.845L1020.94 975.409C1023.21 976.205 1025.34 976.95 1027.25 977.622L1027.36 977.658L1027.38 977.766C1028.4 983.102 1029.21 987.337 1029.77 990.275C1030.03 991.696 1030.24 992.805 1030.38 993.598C1030.44 993.95 1030.49 994.234 1030.53 994.454C1030.57 994.655 1030.58 994.755 1030.57 994.755Z" fill="#263238"/>
<path d="M901.828 968.484L910.883 930.593L915.73 929.32L911.515 928.227L918.676 892.701L923.732 919.3L918.676 920.573L923.732 922.214L928.784 948.081L922.467 949.358L928.784 951.544L932.154 968.484" fill="#263238"/>
<path d="M932.156 968.491C932.148 968.491 932.12 968.399 932.072 968.207C932.02 967.987 931.956 967.71 931.876 967.362C931.708 966.574 931.472 965.473 931.167 964.06C930.563 961.13 929.69 956.911 928.594 951.587L928.722 951.735C926.804 951.082 924.671 950.354 922.393 949.577L921.608 949.309L922.421 949.141C924.411 948.733 926.524 948.296 928.734 947.844L928.538 948.136C927.064 940.679 925.327 931.9 923.426 922.278L923.634 922.514C922.053 922.005 920.328 921.445 918.578 920.881L917.534 920.54L918.598 920.268C920.179 919.868 921.905 919.432 923.65 918.987L923.414 919.359C922.105 912.482 920.704 905.145 919.267 897.588C918.959 895.967 918.654 894.361 918.35 892.768L919.003 892.772C916.417 905.541 913.975 917.574 911.805 928.286L911.589 927.942C913.026 928.318 914.423 928.682 915.8 929.042L916.861 929.319L915.8 929.595C914.143 930.027 912.53 930.447 910.953 930.86L911.149 930.66C908.371 942.068 906.073 951.523 904.456 958.163C903.644 961.43 903.003 964.004 902.555 965.805C902.335 966.654 902.162 967.318 902.034 967.806C901.91 968.259 901.842 968.491 901.83 968.487C901.818 968.483 901.858 968.247 901.954 967.787C902.062 967.294 902.206 966.622 902.395 965.765C902.807 963.96 903.399 961.37 904.152 958.087C905.713 951.431 907.935 941.96 910.617 930.528L910.653 930.367L910.813 930.323C912.386 929.907 913.995 929.479 915.652 929.034V929.591C914.275 929.239 912.874 928.878 911.437 928.506L911.165 928.438L911.221 928.162C913.371 917.446 915.784 905.405 918.346 892.632L918.682 890.963L918.999 892.636C919.303 894.229 919.607 895.838 919.915 897.456C921.348 905.017 922.741 912.358 924.042 919.235L924.098 919.536L923.802 919.608C922.057 920.048 920.328 920.48 918.746 920.876L918.766 920.268C920.516 920.837 922.241 921.401 923.818 921.913L923.99 921.969L924.026 922.15C925.884 931.78 927.581 940.563 929.022 948.028L929.07 948.272L928.826 948.32C926.612 948.761 924.499 949.177 922.505 949.573L922.533 949.137C924.803 949.934 926.928 950.678 928.842 951.351L928.95 951.387L928.97 951.495C929.991 956.831 930.803 961.066 931.364 964.004C931.624 965.425 931.828 966.534 931.972 967.326C932.032 967.678 932.08 967.963 932.116 968.183C932.156 968.391 932.168 968.491 932.156 968.491Z" fill="#263238"/>
<path d="M1224.3 936.26L1228.33 957.447L1224.3 958.464L1228.33 959.773L1232.35 980.38L1227.32 981.396L1232.35 983.138L1235.03 996.635H1210.87L1218.09 966.45L1221.95 965.433L1218.59 964.56L1224.3 936.26Z" fill="#263238"/>
<path d="M1268.23 932.732L1273.76 961.849L1268.23 963.246L1273.76 965.04L1279.3 993.36L1272.38 994.757L1279.3 997.151L1282.99 1015.7H1249.79L1259.7 974.214L1265.01 972.821L1260.39 971.625L1268.23 932.732Z" fill="#263238"/>
<path d="M1242.34 957.219L1245.46 973.627L1242.34 974.411L1245.46 975.424L1248.58 991.375L1244.68 992.164L1248.58 993.513L1250.66 1003.96H1231.95L1237.54 980.592L1240.53 979.803L1237.93 979.131L1242.34 957.219Z" fill="#263238"/>
<path d="M1175.65 929.543L1179.68 950.734L1175.65 951.751L1179.68 953.056L1183.7 973.667L1178.67 974.684L1183.7 976.425L1186.39 989.923H1162.23L1169.44 959.733L1173.3 958.716L1169.94 957.847L1175.65 929.543Z" fill="#263238"/>
<path d="M1122.05 912.24L1126.07 933.432L1122.05 934.448L1126.07 935.753L1130.1 956.364L1125.06 957.377L1130.1 959.122L1132.78 972.62H1108.62L1115.84 942.43L1119.7 941.413L1116.34 940.541L1122.05 912.24Z" fill="#263238"/>
<path d="M1132.79 1007.05L1144.78 956.866L1151.19 955.177L1145.62 953.732L1155.1 906.682L1161.79 941.907L1155.1 943.596L1161.79 945.77L1168.49 980.031L1160.12 981.72L1168.49 984.614L1172.95 1007.05" fill="#263238"/>
<path d="M1186.54 996.632L1195.6 958.741L1200.44 957.468L1196.23 956.375L1203.39 920.85L1208.45 947.449L1203.39 948.722L1208.45 950.363L1213.5 976.23L1207.18 977.507L1213.5 979.692L1216.87 996.632" fill="#263238"/>
<path d="M1216.87 996.639C1216.86 996.643 1216.84 996.547 1216.79 996.355C1216.74 996.135 1216.67 995.859 1216.59 995.51C1216.42 994.722 1216.19 993.621 1215.88 992.208C1215.28 989.278 1214.41 985.059 1213.31 979.735L1213.44 979.883C1211.52 979.231 1209.39 978.502 1207.11 977.726L1206.32 977.457L1207.14 977.289C1209.13 976.881 1211.24 976.445 1213.45 975.992L1213.25 976.285C1211.78 968.827 1210.04 960.049 1208.14 950.43L1208.35 950.666C1206.77 950.154 1205.04 949.597 1203.29 949.033L1202.25 948.697L1203.31 948.424C1204.9 948.024 1206.62 947.588 1208.37 947.143L1208.13 947.516C1206.82 940.639 1205.42 933.301 1203.98 925.74C1203.67 924.123 1203.37 922.514 1203.07 920.92L1203.72 920.925C1201.13 933.694 1198.69 945.726 1196.52 956.438L1196.31 956.094C1197.74 956.47 1199.14 956.835 1200.52 957.195L1201.58 957.471L1200.52 957.747C1198.86 958.179 1197.25 958.6 1195.67 959.012L1195.86 958.812C1193.09 970.22 1190.79 979.675 1189.17 986.316C1188.36 989.582 1187.72 992.16 1187.27 993.957C1187.05 994.806 1186.88 995.47 1186.75 995.959C1186.63 996.411 1186.56 996.643 1186.55 996.639C1186.53 996.635 1186.57 996.399 1186.67 995.939C1186.78 995.446 1186.93 994.774 1187.11 993.917C1187.52 992.112 1188.12 989.522 1188.87 986.24C1190.43 979.583 1192.65 970.112 1195.33 958.68L1195.37 958.52L1195.53 958.476C1197.1 958.059 1198.71 957.631 1200.37 957.191V957.747C1198.99 957.391 1197.59 957.031 1196.15 956.662L1195.88 956.594L1195.94 956.318C1198.09 945.602 1200.5 933.562 1203.06 920.788L1203.39 919.119L1203.71 920.792C1204.01 922.385 1204.32 923.995 1204.63 925.612C1206.06 933.173 1207.45 940.515 1208.75 947.392L1208.81 947.692L1208.51 947.768C1206.77 948.208 1205.04 948.64 1203.46 949.037L1203.48 948.428C1205.23 948.997 1206.95 949.561 1208.53 950.074L1208.71 950.13L1208.74 950.31C1210.6 959.941 1212.3 968.723 1213.74 976.188L1213.79 976.433L1213.54 976.481C1211.33 976.921 1209.21 977.337 1207.22 977.734L1207.25 977.297C1209.52 978.094 1211.64 978.838 1213.56 979.511L1213.67 979.547L1213.69 979.655C1214.71 984.991 1215.52 989.226 1216.08 992.164C1216.34 993.585 1216.54 994.694 1216.69 995.486C1216.75 995.839 1216.8 996.123 1216.83 996.343C1216.87 996.539 1216.88 996.639 1216.87 996.639Z" fill="#263238"/>
<path d="M1088.13 970.367L1097.19 932.475L1102.03 931.202L1097.82 930.11L1104.98 894.588L1110.03 921.183L1104.98 922.456L1110.03 924.097L1115.09 949.964L1108.77 951.241L1115.09 953.426L1118.46 970.367" fill="#263238"/>
<path d="M1118.46 970.364C1118.45 970.368 1118.42 970.272 1118.38 970.08C1118.32 969.86 1118.26 969.583 1118.18 969.235C1118.01 968.447 1117.78 967.346 1117.47 965.933C1116.87 963.003 1116 958.784 1114.9 953.46L1115.03 953.608C1113.11 952.955 1110.98 952.227 1108.7 951.45L1107.91 951.182L1108.73 951.014C1110.72 950.606 1112.83 950.169 1115.04 949.717L1114.84 950.009C1113.37 942.552 1111.63 933.774 1109.73 924.151L1109.93 924.387C1108.35 923.878 1106.63 923.318 1104.88 922.754L1103.83 922.417L1104.9 922.145C1106.48 921.745 1108.21 921.309 1109.95 920.864L1109.71 921.236C1108.41 914.36 1107 907.022 1105.57 899.461C1105.26 897.844 1104.96 896.234 1104.65 894.641L1105.3 894.645C1102.72 907.415 1100.28 919.447 1098.11 930.159L1097.89 929.815C1099.33 930.191 1100.72 930.555 1102.1 930.915L1103.16 931.192L1102.1 931.468C1100.44 931.9 1098.83 932.321 1097.25 932.733L1097.45 932.533C1094.67 943.941 1092.37 953.396 1090.76 960.037C1089.94 963.303 1089.3 965.881 1088.86 967.678C1088.64 968.527 1088.46 969.191 1088.34 969.68C1088.21 970.132 1088.14 970.364 1088.13 970.36C1088.12 970.356 1088.16 970.12 1088.26 969.66C1088.36 969.167 1088.51 968.495 1088.7 967.638C1089.11 965.833 1089.7 963.243 1090.45 959.961C1092.01 953.304 1094.24 943.833 1096.92 932.401L1096.95 932.241L1097.11 932.196C1098.69 931.78 1100.3 931.352 1101.95 930.908V931.464C1100.58 931.108 1099.17 930.747 1097.74 930.379L1097.47 930.311L1097.52 930.035C1099.67 919.319 1102.09 907.278 1104.65 894.505L1104.98 892.836L1105.3 894.509C1105.6 896.102 1105.9 897.712 1106.21 899.329C1107.65 906.89 1109.04 914.231 1110.34 921.108L1110.4 921.409L1110.1 921.481C1108.35 921.921 1106.63 922.353 1105.04 922.75L1105.06 922.141C1106.81 922.71 1108.54 923.274 1110.11 923.786L1110.29 923.842L1110.33 924.023C1112.18 933.654 1113.88 942.436 1115.32 949.901L1115.37 950.145L1115.13 950.193C1112.91 950.634 1110.8 951.05 1108.81 951.446L1108.83 951.01C1111.1 951.807 1113.23 952.551 1115.14 953.224L1115.25 953.26L1115.27 953.368C1116.29 958.704 1117.1 962.939 1117.66 965.877C1117.92 967.298 1118.13 968.407 1118.27 969.199C1118.33 969.552 1118.38 969.836 1118.42 970.056C1118.46 970.264 1118.47 970.364 1118.46 970.364Z" fill="#263238"/>
<path d="M1356.29 951.004L1360.32 972.191L1356.29 973.208L1360.32 974.517L1364.35 995.124L1359.31 996.141L1364.35 997.882L1367.03 1011.38H1342.87L1350.08 981.19L1353.94 980.177L1350.58 979.304L1356.29 951.004Z" fill="#263238"/>
<path d="M1399.63 959.73L1403.38 979.465L1399.63 980.409L1403.38 981.626L1407.13 1000.82L1402.45 1001.76L1407.13 1003.39L1409.64 1015.96H1387.13L1393.85 987.843L1397.45 986.898L1394.32 986.086L1399.63 959.73Z" fill="#263238"/>
<path d="M1374.35 971.957L1377.46 988.361L1374.35 989.149L1377.46 990.162L1380.58 1006.11L1376.68 1006.9L1380.58 1008.25L1382.66 1018.7H1363.96L1369.54 995.33L1372.53 994.541L1369.93 993.869L1374.35 971.957Z" fill="#263238"/>
<path d="M1307.65 944.287L1311.68 965.478L1307.65 966.495L1311.68 967.8L1315.71 988.411L1310.67 989.428L1315.71 991.169L1318.39 1004.67H1294.23L1301.44 974.477L1305.3 973.46L1301.95 972.592L1307.65 944.287Z" fill="#263238"/>
<path d="M1254.05 926.988L1258.07 948.18L1254.05 949.196L1258.07 950.501L1262.1 971.112L1257.06 972.125L1262.1 973.87L1264.79 987.368H1240.62L1247.84 957.178L1251.7 956.161L1248.34 955.289L1254.05 926.988Z" fill="#263238"/>
<path d="M1264.79 1021.79L1276.78 971.606L1283.2 969.917L1277.62 968.472L1287.1 921.422L1293.79 956.647L1287.1 958.337L1293.79 960.51L1300.49 994.771L1292.12 996.46L1300.49 999.354L1304.95 1021.79" fill="#263238"/>
<path d="M1318.54 1011.38L1327.6 973.491L1332.44 972.218L1328.23 971.125L1335.39 935.6L1340.45 962.199L1335.39 963.472L1340.45 965.113L1345.5 990.98L1339.18 992.257L1345.5 994.442L1348.87 1011.38" fill="#263238"/>
<path d="M1348.87 1011.38C1348.86 1011.38 1348.84 1011.29 1348.79 1011.1C1348.74 1010.88 1348.67 1010.6 1348.59 1010.25C1348.42 1009.46 1348.19 1008.36 1347.88 1006.95C1347.28 1004.02 1346.41 999.801 1345.31 994.477L1345.44 994.625C1343.52 993.973 1341.39 993.244 1339.11 992.468L1338.32 992.2L1339.14 992.031C1341.13 991.623 1343.24 991.187 1345.45 990.735L1345.25 991.027C1343.78 983.569 1342.04 974.791 1340.14 965.172L1340.35 965.408C1338.77 964.896 1337.04 964.339 1335.29 963.775L1334.25 963.439L1335.31 963.167C1336.9 962.766 1338.62 962.33 1340.37 961.886L1340.13 962.258C1338.82 955.381 1337.42 948.044 1335.98 940.482C1335.67 938.865 1335.37 937.256 1335.07 935.663L1335.72 935.667C1333.13 948.436 1330.69 960.469 1328.52 971.18L1328.31 970.836C1329.74 971.212 1331.14 971.577 1332.52 971.937L1333.58 972.213L1332.52 972.489C1330.86 972.922 1329.25 973.342 1327.67 973.754L1327.86 973.554C1325.09 984.962 1322.79 994.417 1321.17 1001.06C1320.36 1004.32 1319.72 1006.9 1319.27 1008.7C1319.05 1009.55 1318.88 1010.21 1318.75 1010.7C1318.63 1011.15 1318.56 1011.39 1318.55 1011.38C1318.53 1011.38 1318.57 1011.14 1318.67 1010.68C1318.78 1010.19 1318.92 1009.52 1319.11 1008.66C1319.52 1006.85 1320.12 1004.26 1320.87 1000.98C1322.43 994.325 1324.65 984.854 1327.33 973.422L1327.37 973.262L1327.53 973.218C1329.1 972.802 1330.71 972.373 1332.37 971.933V972.485C1330.99 972.129 1329.59 971.769 1328.15 971.401L1327.88 971.333L1327.94 971.056C1330.09 960.341 1332.5 948.3 1335.06 935.527L1335.4 933.857L1335.71 935.531C1336.02 937.124 1336.32 938.733 1336.63 940.35C1338.06 947.912 1339.46 955.249 1340.76 962.13L1340.81 962.43L1340.52 962.502C1338.77 962.942 1337.05 963.375 1335.46 963.771L1335.48 963.163C1337.23 963.731 1338.96 964.295 1340.53 964.808L1340.71 964.864L1340.74 965.044C1342.6 974.675 1344.3 983.457 1345.74 990.923L1345.79 991.167L1345.54 991.215C1343.33 991.651 1341.21 992.072 1339.22 992.468L1339.25 992.031C1341.52 992.828 1343.64 993.573 1345.56 994.245L1345.67 994.281L1345.69 994.389C1346.71 999.725 1347.52 1003.96 1348.08 1006.9C1348.34 1008.32 1348.54 1009.43 1348.69 1010.22C1348.75 1010.57 1348.79 1010.86 1348.83 1011.08C1348.87 1011.28 1348.88 1011.38 1348.87 1011.38Z" fill="#263238"/>
<path d="M1220.13 985.115L1229.19 947.219L1234.03 945.946L1229.82 944.854L1236.98 909.332L1242.03 935.927L1236.98 937.204L1242.03 938.841L1247.09 964.708L1240.77 965.985L1247.09 968.17L1250.46 985.115" fill="#263238"/>
<path d="M1250.46 985.116C1250.45 985.116 1250.42 985.024 1250.37 984.832C1250.32 984.612 1250.26 984.335 1250.18 983.987C1250.01 983.199 1249.77 982.098 1249.47 980.685C1248.87 977.755 1247.99 973.536 1246.9 968.212L1247.02 968.36C1245.11 967.707 1242.97 966.979 1240.7 966.202L1239.91 965.934L1240.72 965.766C1242.71 965.358 1244.83 964.921 1247.04 964.469L1246.84 964.761C1245.37 957.304 1243.63 948.525 1241.73 938.903L1241.94 939.139C1240.36 938.63 1238.63 938.07 1236.88 937.506L1235.84 937.169L1236.9 936.897C1238.48 936.497 1240.21 936.06 1241.95 935.616L1241.72 935.988C1240.41 929.111 1239.01 921.774 1237.57 914.217C1237.26 912.599 1236.96 910.99 1236.65 909.397L1237.31 909.401C1234.72 922.17 1232.28 934.203 1230.11 944.915L1229.89 944.571C1231.33 944.947 1232.73 945.311 1234.1 945.671L1235.16 945.948L1234.1 946.224C1232.45 946.656 1230.83 947.076 1229.26 947.489L1229.45 947.289C1226.67 958.701 1224.38 968.152 1222.76 974.793C1221.95 978.059 1221.31 980.637 1220.86 982.434C1220.64 983.283 1220.47 983.947 1220.34 984.435C1220.22 984.888 1220.14 985.12 1220.13 985.116C1220.12 985.112 1220.16 984.876 1220.26 984.415C1220.37 983.923 1220.51 983.251 1220.7 982.394C1221.11 980.589 1221.7 977.999 1222.45 974.716C1224.02 968.06 1226.24 958.589 1228.92 947.156L1228.96 946.996L1229.12 946.952C1230.69 946.532 1232.3 946.108 1233.95 945.663V946.22C1232.58 945.864 1231.18 945.503 1229.74 945.135L1229.47 945.067L1229.52 944.791C1231.67 934.075 1234.09 922.034 1236.65 909.261L1236.98 907.592L1237.3 909.265C1237.61 910.858 1237.91 912.467 1238.22 914.085C1239.65 921.646 1241.04 928.987 1242.35 935.864L1242.4 936.164L1242.1 936.237C1240.36 936.677 1238.63 937.109 1237.05 937.506L1237.07 936.897C1238.82 937.465 1240.54 938.03 1242.12 938.542L1242.29 938.598L1242.33 938.778C1244.19 948.409 1245.88 957.192 1247.32 964.657L1247.37 964.901L1247.13 964.949C1244.91 965.39 1242.8 965.806 1240.81 966.202L1240.84 965.766C1243.11 966.563 1245.23 967.307 1247.14 967.979L1247.25 968.016L1247.27 968.124C1248.29 973.459 1249.11 977.695 1249.67 980.633C1249.93 982.054 1250.13 983.163 1250.27 983.955C1250.33 984.307 1250.38 984.592 1250.42 984.812C1250.45 985.012 1250.47 985.112 1250.46 985.116Z" fill="#263238"/>
<path d="M703.073 874.102L707.712 898.527L703.073 899.7L707.712 901.205L712.356 924.962L706.551 926.135L712.356 928.141L715.45 943.7H687.598L695.916 908.903L700.363 907.73L696.496 906.725L703.073 874.102Z" fill="#263238"/>
<path d="M753.032 884.166L757.355 906.915L753.032 908.003L757.355 909.408L761.678 931.528L756.274 932.621L761.678 934.49L764.56 948.981H738.621L746.367 916.573L750.51 915.485L746.907 914.548L753.032 884.166Z" fill="#263238"/>
<path d="M723.877 898.26L727.472 917.169L723.877 918.078L727.472 919.243L731.062 937.632L726.571 938.541L731.062 940.094L733.46 952.139H711.896L718.337 925.199L721.78 924.295L718.786 923.518L723.877 898.26Z" fill="#263238"/>
<path d="M646.999 866.355L651.642 890.785L646.999 891.954L651.642 893.459L656.285 917.216L650.481 918.389L656.285 920.395L659.38 935.958H631.527L639.845 901.157L644.293 899.984L640.422 898.983L646.999 866.355Z" fill="#263238"/>
<path d="M570.38 850.258L575.708 878.29L570.38 879.635L575.708 881.364L581.036 908.632L574.375 909.977L581.036 912.279L584.586 930.14H552.619L562.166 890.199L567.27 888.854L562.831 887.701L570.38 850.258Z" fill="#263238"/>
<path d="M597.586 955.706L611.412 897.856L618.809 895.91L612.377 894.241L623.309 840.006L631.026 880.611L623.309 882.561L631.026 885.062L638.744 924.555L629.097 926.5L638.744 929.839L643.887 955.706" fill="#263238"/>
<path d="M659.557 943.701L669.992 900.025L675.576 898.552L670.721 897.295L678.975 856.346L684.803 887.004L678.975 888.473L684.803 890.362L690.631 920.184L683.346 921.653L690.631 924.175L694.514 943.701" fill="#263238"/>
<path d="M694.517 943.702C694.505 943.706 694.473 943.594 694.421 943.374C694.361 943.121 694.289 942.801 694.197 942.397C694 941.488 693.728 940.219 693.38 938.59C692.683 935.212 691.679 930.348 690.414 924.212L690.562 924.38C688.348 923.627 685.89 922.787 683.269 921.894L682.364 921.586L683.305 921.394C685.598 920.921 688.032 920.421 690.582 919.897L690.358 920.233C688.656 911.635 686.655 901.519 684.461 890.427L684.702 890.7C682.88 890.111 680.891 889.471 678.873 888.818L677.668 888.43L678.897 888.118C680.723 887.653 682.708 887.153 684.722 886.641L684.449 887.069C682.94 879.143 681.327 870.685 679.666 861.971C679.31 860.105 678.961 858.252 678.609 856.415L679.362 856.419C676.38 871.137 673.57 885.011 671.068 897.356L670.82 896.96C672.473 897.392 674.086 897.817 675.671 898.229L676.896 898.549L675.675 898.87C673.762 899.37 671.904 899.854 670.087 900.327L670.315 900.094C667.113 913.248 664.463 924.144 662.598 931.801C661.661 935.568 660.92 938.534 660.404 940.612C660.152 941.592 659.952 942.357 659.804 942.921C659.663 943.442 659.583 943.71 659.567 943.702C659.551 943.698 659.599 943.426 659.712 942.897C659.836 942.329 660.004 941.556 660.22 940.568C660.696 938.486 661.381 935.504 662.245 931.721C664.047 924.048 666.609 913.132 669.699 899.954L669.743 899.77L669.927 899.722C671.74 899.242 673.598 898.745 675.507 898.241V898.882C673.922 898.473 672.305 898.057 670.647 897.633L670.335 897.553L670.399 897.236C672.877 884.883 675.659 871.005 678.613 856.283L678.997 854.361L679.366 856.287C679.714 858.124 680.066 859.977 680.423 861.843C682.076 870.561 683.677 879.019 685.182 886.945L685.246 887.289L684.906 887.373C682.892 887.878 680.903 888.378 679.078 888.838L679.102 888.138C681.119 888.794 683.104 889.443 684.926 890.035L685.126 890.099L685.166 890.303C687.307 901.403 689.265 911.531 690.922 920.137L690.978 920.417L690.698 920.473C688.144 920.978 685.71 921.462 683.409 921.918L683.441 921.418C686.059 922.334 688.508 923.195 690.71 923.972L690.834 924.016L690.858 924.14C692.035 930.292 692.972 935.172 693.62 938.558C693.92 940.199 694.152 941.476 694.321 942.385C694.389 942.793 694.445 943.117 694.485 943.374C694.513 943.586 694.525 943.702 694.517 943.702Z" fill="#263238"/>
<path d="M525.506 927.157L537.491 877.025L543.899 875.339L538.323 873.894L547.798 826.896L554.487 862.082L547.798 863.771L554.487 865.941L561.172 900.162L552.814 901.851L561.172 904.741L565.631 927.157" fill="#263238"/>
<path d="M565.633 927.16C565.621 927.164 565.585 927.036 565.521 926.787C565.453 926.495 565.369 926.131 565.261 925.667C565.037 924.626 564.724 923.169 564.324 921.299C563.523 917.421 562.371 911.841 560.918 904.799L561.086 904.992C558.548 904.127 555.726 903.166 552.716 902.138L551.679 901.785L552.756 901.565C555.39 901.025 558.184 900.448 561.11 899.848L560.85 900.236C558.896 890.369 556.602 878.757 554.085 866.027L554.361 866.34C552.271 865.663 549.99 864.927 547.672 864.178L546.287 863.73L547.7 863.374C549.794 862.841 552.075 862.265 554.385 861.68L554.069 862.173C552.335 853.074 550.486 843.367 548.581 833.364C548.172 831.222 547.768 829.093 547.368 826.987L548.228 826.991C544.806 843.887 541.58 859.807 538.706 873.977L538.421 873.521C540.319 874.017 542.172 874.501 543.989 874.978L545.394 875.346L543.989 875.71C541.792 876.283 539.662 876.839 537.577 877.384L537.837 877.115C534.162 892.21 531.12 904.715 528.982 913.506C527.906 917.829 527.057 921.235 526.465 923.613C526.172 924.738 525.944 925.615 525.776 926.263C525.616 926.859 525.524 927.164 525.504 927.16C525.484 927.156 525.54 926.839 525.668 926.235C525.812 925.583 526.004 924.694 526.252 923.561C526.801 921.171 527.585 917.749 528.578 913.406C530.644 904.599 533.586 892.07 537.132 876.943L537.18 876.731L537.393 876.675C539.474 876.123 541.604 875.554 543.797 874.974V875.706C541.976 875.238 540.123 874.762 538.221 874.273L537.861 874.181L537.933 873.817C540.775 859.639 543.969 843.711 547.36 826.811L547.8 824.605L548.22 826.819C548.621 828.925 549.025 831.054 549.433 833.196C551.331 843.199 553.172 852.91 554.897 862.008L554.973 862.405L554.585 862.501C552.275 863.081 549.99 863.654 547.896 864.182L547.924 863.377C550.238 864.13 552.519 864.875 554.609 865.555L554.837 865.631L554.881 865.867C557.339 878.609 559.585 890.229 561.49 900.108L561.554 900.432L561.234 900.496C558.304 901.077 555.506 901.629 552.868 902.154L552.908 901.577C555.91 902.63 558.724 903.619 561.254 904.507L561.394 904.555L561.422 904.699C562.775 911.761 563.848 917.361 564.592 921.247C564.936 923.129 565.205 924.594 565.397 925.643C565.477 926.111 565.537 926.483 565.585 926.775C565.633 927.023 565.645 927.156 565.633 927.16Z" fill="#263238"/>
<path opacity="0.3" d="M1315.05 985.004C1315.05 985.004 1307.08 1002.39 1308.03 1002.08C1308.97 1001.76 1324.42 985.825 1324.42 985.825L1315.05 985.004Z" fill="#FF725E"/>
<path opacity="0.3" d="M1345.12 987.627L1343.17 996.629L1348.48 987.919L1345.12 987.627Z" fill="#FF725E"/>
<path opacity="0.3" d="M1363.2 989.209L1364.53 991.735L1370.74 989.869L1363.2 989.209Z" fill="#FF725E"/>
<path opacity="0.3" d="M1213.74 976.186L1196.94 989.919L1215.72 976.318L1213.74 976.186Z" fill="#FF725E"/>
<path opacity="0.3" d="M1183.63 973.51L1164.54 988.969L1191.69 974.214L1183.63 973.51Z" fill="#FF725E"/>
<path opacity="0.3" d="M1132.06 968.992L1108.62 986L1141.68 969.837L1132.06 968.992Z" fill="#FF725E"/>
<path opacity="0.3" d="M1075.25 964.014L1042.03 981.243L1057.4 962.449L1075.25 964.014Z" fill="#FF725E"/>
<path opacity="0.3" d="M1054.66 962.203C1053.84 962.131 1024.57 975.124 1024.57 975.124L1042.66 961.15L1054.66 962.203Z" fill="#FF725E"/>
<path opacity="0.3" d="M1008.72 958.184C1008.57 958.825 988.02 963.288 988.02 963.288L994.512 956.939L1008.72 958.184Z" fill="#FF725E"/>
<path opacity="0.3" d="M1024.61 959.57L1013.8 967.48L1032.78 960.287L1024.61 959.57Z" fill="#FF725E"/>
</svg>
