<svg width="2900" height="1936" viewBox="0 0 2900 1936" fill="none" xmlns="http://www.w3.org/2000/svg">
<path d="M2044.63 998.443L2023.27 959.345L1960.7 948.484L1879.8 902.867L1837.07 848.563L1760.76 772.537L1679.87 746.471L1631.03 787.743L1591.35 874.629L1531.83 894.18L1487.57 946.314L1389.89 959.349L1338 926.767L1307.47 935.457L1200.64 905.045L1128.91 861.602L1081.59 795.352C1081.59 795.352 1063.28 770.371 1038.86 752.994L991.549 705.206L887.767 644.387L855.717 690L828.245 703.032L677.147 818.155L545.893 846.392H458.895C458.895 846.392 331.822 1039.27 327.244 1041.44H2131.63L2044.63 998.443Z" fill="#455A64"/>
<path opacity="0.3" d="M2044.63 998.443L2023.27 959.345L1960.7 948.484L1879.8 902.867L1837.07 848.563L1760.76 772.537L1679.87 746.471L1631.03 787.743L1591.35 874.629L1531.83 894.18L1487.57 946.314L1389.89 959.349L1338 926.767L1307.47 935.457L1200.64 905.045L1128.91 861.602L1081.59 795.352C1081.59 795.352 1063.28 770.371 1038.86 752.994L991.549 705.206L887.767 644.387L855.717 690L828.245 703.032L677.147 818.155L545.893 846.392H458.895C458.895 846.392 331.822 1039.27 327.244 1041.44H2131.63L2044.63 998.443Z" fill="#FF725E"/>
<path d="M126.292 1031.53C136.124 1024.15 281.166 715.772 281.166 715.772L381.957 679.989L539.29 574.281L684.332 623.447L721.207 677.531L790.04 689.821L878.54 802.902L1156.33 989.733L1340.7 1031.53L1477.62 965.141L1686.58 847.142L1871.7 802.906C1871.7 802.906 2014.29 677.531 2021.66 675.072C2029.04 672.613 2235.53 715.772 2235.53 715.772L2417.45 827.487L2675.58 884.029L2900 1066.05L1354.45 1078.43L114.006 1068.41L126.292 1031.53Z" fill="#455A64"/>
<path opacity="0.1" d="M381.959 679.984L396.868 739.51L436.527 772.581L458.893 846.396L529.104 882.611L560.625 992.456L750.736 1073.55L114 1068.4L125.325 1034.43L191.119 904.684L281.168 715.77L381.959 679.984Z" fill="black"/>
<path opacity="0.1" d="M1340.7 1031.52L1547.36 956.167L1693.04 857.555L1678.04 887.566C1678.04 887.566 1877.7 801.465 1871.7 802.899C1865.7 804.332 1686.58 847.135 1686.58 847.135L1477.62 965.133L1340.7 1031.52Z" fill="#FF725E"/>
<path opacity="0.1" d="M1871.7 802.897L1938.81 776.054L2013.43 680.994L1927.39 754.232L1871.7 802.897Z" fill="#FF725E"/>
<path d="M828.238 703.034C828.238 703.034 828.811 702.697 829.972 702.117C831.194 701.516 832.92 700.667 835.174 699.554C839.844 697.299 846.672 693.999 855.566 689.702L855.438 689.81C863.392 678.401 874.176 662.927 887.316 644.073L887.6 643.664L888.033 643.916C916.037 660.252 951.163 680.736 991.943 704.52L992.031 704.572L992.103 704.648C1006.81 719.465 1022.73 735.504 1039.48 752.372L1039.36 752.276C1048.16 758.583 1056.53 765.964 1064.46 774.121C1072.35 782.295 1080.07 791.133 1086.76 800.961C1100.55 820.248 1114.92 840.331 1129.71 861.02L1129.42 860.747C1152.34 874.616 1176.46 889.209 1201.16 904.158L1200.91 904.05C1228.5 911.899 1257.42 920.125 1286.86 928.503C1293.85 930.493 1300.82 932.479 1307.75 934.45H1307.18C1317.44 931.53 1327.61 928.635 1337.7 925.764L1338.15 925.635L1338.54 925.88C1356.13 936.933 1373.45 947.81 1390.42 958.474L1389.75 958.326C1423.52 953.837 1456.17 949.499 1487.43 945.343L1486.82 945.675C1502.14 927.658 1516.92 910.273 1531.12 893.582L1531.29 893.386L1531.53 893.305C1552.39 886.481 1572.2 879.998 1591.07 873.823L1590.57 874.275C1605.27 842.229 1618.6 813.163 1630.39 787.457L1630.46 787.313L1630.57 787.213C1649.34 771.438 1665.51 757.834 1679.51 746.06L1679.74 745.868L1680.02 745.96C1705.96 754.434 1726.14 761.026 1739.9 765.519C1746.7 767.774 1751.9 769.496 1755.47 770.681C1757.18 771.266 1758.48 771.711 1759.42 772.031C1760.31 772.339 1760.74 772.532 1760.74 772.532C1760.74 772.532 1760.28 772.431 1759.38 772.167C1758.42 771.879 1757.1 771.478 1755.38 770.954C1751.79 769.832 1746.56 768.194 1739.72 766.056C1725.93 761.671 1705.7 755.243 1679.69 746.978L1680.2 746.877C1666.25 758.719 1650.14 772.399 1631.46 788.266L1631.64 788.026C1619.93 813.772 1606.69 842.882 1592.1 874.976L1591.95 875.312L1591.6 875.428C1572.74 881.644 1552.93 888.171 1532.1 895.044L1532.51 894.767C1518.34 911.483 1503.59 928.891 1488.29 946.937L1488.05 947.221L1487.68 947.269C1456.43 951.454 1423.78 955.827 1390.01 960.352L1389.65 960.4L1389.33 960.204C1372.35 949.548 1355.03 938.679 1337.43 927.634L1338.27 927.754C1328.18 930.629 1318 933.525 1307.75 936.444L1307.46 936.524L1307.18 936.444C1300.25 934.474 1293.28 932.487 1286.28 930.497C1256.85 922.115 1227.94 913.878 1200.34 906.024L1200.21 905.984L1200.09 905.912C1175.39 890.939 1151.29 876.326 1128.38 862.441L1128.2 862.333L1128.08 862.165C1113.32 841.461 1098.98 821.361 1085.22 802.058C1078.58 792.255 1070.97 783.532 1063.14 775.383C1055.29 767.273 1047.02 759.945 1038.34 753.697L1038.27 753.649L1038.22 753.597C1021.52 736.685 1005.64 720.607 990.974 705.749L991.134 705.873C950.454 681.921 915.413 661.289 887.476 644.837L888.193 644.681C874.913 663.431 864.008 678.825 855.971 690.171L855.919 690.243L855.843 690.279C846.884 694.452 840.012 697.652 835.311 699.842C833.02 700.887 831.274 701.688 830.036 702.253C828.859 702.802 828.238 703.034 828.238 703.034Z" fill="#FF725E"/>
<path opacity="0.3" d="M1128.9 861.607L1201.68 942.414L1195.73 917.209L1331.24 989.269L1259.5 925.438L1307.47 935.458L1200.63 905.051L1128.9 861.607Z" fill="#FF725E"/>
<path opacity="0.3" d="M1487.56 946.317C1489.61 943.898 1536.99 899.85 1536.99 899.85L1531.18 917.207L1549.72 895.489L1579.16 886.038L1572.26 895.489L1571.89 903.851L1576.62 893.671L1591.35 874.637L1531.82 894.188L1487.56 946.317Z" fill="#FF725E"/>
<path opacity="0.3" d="M1337.99 926.768L1340.7 939.25L1354.35 952.446L1346.17 937.272L1352.59 939.607L1361.5 950.908L1371.72 957.508L1363.36 948.489L1361.5 943.211L1389.89 959.35L1338.95 926.768" fill="#FF725E"/>
<path opacity="0.3" d="M1357.21 957.68L1363.94 964.744L1375.9 968.42L1357.21 957.68Z" fill="#FF725E"/>
<path opacity="0.3" fill-rule="evenodd" clip-rule="evenodd" d="M1204.44 952.016C1206.14 952.016 1229.43 970.774 1229.43 970.774L1257.3 978.447L1204.44 952.016Z" fill="#FF725E"/>
<path opacity="0.3" fill-rule="evenodd" clip-rule="evenodd" d="M887.762 644.387L919.667 717.256L943.844 741.745L931.753 713.256L936.095 697.157L973.402 717.26L993.073 766.17L1027.96 791.948L997.619 745.093L994.431 732.931C994.431 732.931 1032.42 757.351 1032.42 759.386C1032.42 761.42 1060.91 796.694 1060.91 796.694L1036.12 750.239L991.54 705.206L887.762 644.387Z" fill="#FF725E"/>
<path opacity="0.3" fill-rule="evenodd" clip-rule="evenodd" d="M1595.73 865.018C1596.19 864.021 1629.89 802.901 1629.89 802.901L1623.05 828.399L1624.42 847.525C1624.42 847.525 1627.15 828.863 1627.61 826.352C1628.06 823.845 1642.64 788.324 1642.64 788.324L1656.3 776.029L1648.56 802.901L1666.32 767.836L1679.86 746.479L1631.02 787.751L1595.73 865.018Z" fill="#FF725E"/>
<path opacity="0.3" fill-rule="evenodd" clip-rule="evenodd" d="M1646.67 809.84C1645.87 810.16 1641.52 821.914 1641.52 821.914L1642.49 829.803L1646.67 809.84Z" fill="#FF725E"/>
<path opacity="0.3" fill-rule="evenodd" clip-rule="evenodd" d="M950.861 750.242L968.014 781.631L997.48 810.521L950.861 750.242Z" fill="#FF725E"/>
<path opacity="0.1" fill-rule="evenodd" clip-rule="evenodd" d="M1662.21 904.688C1659.81 905.488 1606.27 938.335 1606.27 938.335L1599.72 957.682L1662.21 904.688Z" fill="#FF725E"/>
<path d="M878.539 802.903C878.539 802.903 879.004 803.155 879.877 803.712C880.79 804.308 882.075 805.141 883.749 806.231C887.197 808.513 892.223 811.837 898.759 816.158C911.914 824.937 931.105 837.74 955.486 854.007C1004.28 886.713 1073.78 933.304 1156.84 988.977L1156.53 988.845C1212.69 1001.54 1274.97 1015.62 1340.93 1030.53L1340.25 1030.6C1377.37 1012.6 1415.85 993.935 1455.23 974.833C1476.72 965.121 1496.65 953.059 1516.65 941.902C1536.6 930.645 1556.23 919.564 1575.49 908.695C1614.01 886.966 1651.04 866.081 1686.1 846.306L1686.22 846.238L1686.35 846.206C1755.74 829.706 1818.26 814.837 1871.52 802.17L1871.21 802.326C1917.6 762.964 1955.15 731.102 1981.15 709.044C1994.13 698.092 2004.22 689.582 2011.11 683.767C2014.52 680.923 2017.13 678.741 2018.94 677.235C2020.71 675.773 2021.65 675.064 2021.65 675.064C2021.65 675.064 2020.8 675.881 2019.08 677.399C2017.3 678.945 2014.73 681.176 2011.39 684.091C2004.55 689.978 1994.55 698.588 1981.68 709.673C1955.78 731.855 1918.39 763.885 1872.17 803.463L1872.04 803.58L1871.86 803.62C1818.63 816.399 1756.14 831.408 1686.79 848.056L1687.04 847.96C1651.98 867.779 1614.96 888.708 1576.46 910.481C1557.2 921.362 1537.57 932.455 1517.62 943.728C1497.62 954.893 1477.68 966.96 1456.18 976.679C1416.78 995.777 1378.27 1014.44 1341.14 1032.44L1340.81 1032.59L1340.47 1032.51C1274.53 1017.53 1212.27 1003.37 1156.12 990.611L1155.95 990.575L1155.81 990.479C1072.92 934.545 1003.57 887.742 954.873 854.884C930.616 838.441 911.518 825.493 898.43 816.619C891.963 812.194 886.985 808.794 883.573 806.459C881.931 805.318 880.678 804.445 879.781 803.824C878.948 803.239 878.539 802.903 878.539 802.903Z" fill="#FF725E"/>
<path opacity="0.1" d="M1150.32 990.537L988.696 910.487L1021.97 957.678L1066.16 971.771L1017.65 964.951L954.067 906.795L943.843 899.59L943.847 925.433L883.023 805.912L1156.33 989.732L1150.32 990.537Z" fill="#FF725E"/>
<path opacity="0.1" d="M539.293 574.276C539.293 574.276 639.643 711.269 640.151 709.735C640.66 708.205 616.155 642.011 616.155 642.011L654.957 651.535L665.677 692.891L773.404 754.155L718.776 701.057L722.348 685.23L776.468 720.235L783.616 704.12C783.616 704.12 874.439 797.658 873.113 795.964C871.788 794.27 790.044 689.816 790.044 689.816L721.211 677.525L684.335 623.442C684.335 623.442 536.97 574.112 539.293 574.276Z" fill="#FF725E"/>
<path opacity="0.1" d="M739.929 781.628C745.308 785.785 778.971 810.518 778.971 810.518L834.581 910.475L773.829 838.05L761.827 836.28L701.572 753.699L730.038 781.628H739.929Z" fill="#FF725E"/>
<path opacity="0.1" d="M1817.1 854.613C1810.89 857.392 1772.37 873.543 1772.37 873.543L1694.88 957.678L1770.91 901.512L1783 902.605L1860.93 836.451L1826.71 856.927L1817.1 854.613Z" fill="#FF725E"/>
<path opacity="0.1" d="M703.217 872.006C708.6 876.163 742.259 900.896 742.259 900.896L750.361 944.215L735.888 915.71L725.107 917.556L684.844 842.912L703.866 861.222L703.217 872.006Z" fill="#FF725E"/>
<path opacity="0.1" d="M978.06 969.155C984.047 972.379 1021.29 991.289 1021.29 991.289L1036.35 1032.71L1017.42 1006.94L1007.08 1010.52L955.186 943.449L976.939 958.411L978.06 969.155Z" fill="#FF725E"/>
<path opacity="0.1" d="M1715.71 1068.5L1809.08 1027.13C1809.08 1027.13 1810.83 993.253 1813.18 993.193C1815.52 993.133 1851.61 1000.43 1851.61 1000.43V945.037L1930.73 851.323L1977.2 835.884C1977.2 835.884 1945.8 859.256 1942.03 860.998C1938.26 862.74 1925.7 908.898 1925.7 908.898L2004.82 860.998L2033.71 808.236L2080.18 785.762H2038.73L2092.66 728.362L2036.74 708.15L2158.26 732.807L2355.22 851.327L2568.43 889.648L2777.63 1059.32L1715.71 1068.5Z" fill="black"/>
<path d="M2022.72 876.428C2020.41 877.173 1999.08 905.538 1999.08 905.538C1999.08 905.538 1993.9 931.356 1995.63 930.203C1997.36 929.05 2029.64 890.408 2029.64 890.408L2022.72 876.428Z" fill="#455A64"/>
<path opacity="0.1" d="M1430.16 1075.22L1553.49 1051.87V1067.92L1662.21 988.082L1618.02 1051.19L1662.21 1064.76L1760.75 1075.9L1430.16 1075.22Z" fill="black"/>
</svg>
