<svg width="2900" height="1813" viewBox="0 0 2900 1813" fill="none" xmlns="http://www.w3.org/2000/svg">
<path d="M1376.47 937.033C1477.83 921.035 1547.03 825.896 1531.03 724.533C1515.04 623.17 1419.9 553.968 1318.53 569.965C1217.17 585.963 1147.97 681.102 1163.97 782.465C1179.96 883.828 1275.1 953.03 1376.47 937.033Z" fill="#FF725E"/>
<g opacity="0.9">
<path d="M1376.47 937.033C1477.83 921.035 1547.03 825.896 1531.03 724.533C1515.04 623.17 1419.9 553.968 1318.53 569.965C1217.17 585.963 1147.97 681.102 1163.97 782.465C1179.96 883.828 1275.1 953.03 1376.47 937.033Z" fill="white"/>
</g>
<path d="M1347.43 919.254C1438.95 919.254 1513.13 845.065 1513.13 753.55C1513.13 662.034 1438.95 587.846 1347.43 587.846C1255.91 587.846 1181.73 662.034 1181.73 753.55C1181.73 845.065 1255.91 919.254 1347.43 919.254Z" fill="#FF725E"/>
<g opacity="0.6">
<path d="M1347.43 919.254C1438.95 919.254 1513.13 845.065 1513.13 753.55C1513.13 662.034 1438.95 587.846 1347.43 587.846C1255.91 587.846 1181.73 662.034 1181.73 753.55C1181.73 845.065 1255.91 919.254 1347.43 919.254Z" fill="white"/>
</g>
<path d="M1484.92 763.463C1490.4 687.509 1433.27 621.498 1357.31 616.023C1281.36 610.547 1215.35 667.681 1209.87 743.635C1204.4 819.589 1261.53 885.601 1337.48 891.076C1413.44 896.551 1479.45 839.417 1484.92 763.463Z" fill="#FF725E"/>
<g opacity="0.3">
<path d="M1484.92 763.463C1490.4 687.509 1433.27 621.498 1357.31 616.023C1281.36 610.547 1215.35 667.681 1209.87 743.635C1204.4 819.589 1261.53 885.601 1337.48 891.076C1413.44 896.551 1479.45 839.417 1484.92 763.463Z" fill="white"/>
</g>
<path d="M1347.43 863.948C1408.4 863.948 1457.83 814.519 1457.83 753.545C1457.83 692.572 1408.4 643.143 1347.43 643.143C1286.46 643.143 1237.03 692.572 1237.03 753.545C1237.03 814.519 1286.46 863.948 1347.43 863.948Z" fill="#FF725E"/>
</svg>
