<svg width="2900" height="1813" viewBox="0 0 2900 1813" fill="none" xmlns="http://www.w3.org/2000/svg">
<path d="M855.616 1304.36C855.616 1304.36 851.714 1301.76 860.301 1290.51C863.026 1286.94 863.549 1283.9 862.994 1281.4C861.833 1276.17 855.7 1273.42 850.848 1275.69C832.226 1284.44 810.803 1283.75 794.124 1280.91C785.15 1279.38 783.897 1267.06 792.333 1263.64C810.093 1256.42 830.993 1246.08 835.322 1236C836.99 1232.12 837.337 1229.23 836.859 1227.07C835.989 1223.16 837.226 1218.95 840.921 1217.4C844.536 1215.89 847.712 1213.8 849.376 1210.9C853.027 1204.55 844.663 1197.42 838.706 1193.38C836.093 1191.61 834.457 1188.59 834.824 1185.45C835.111 1183.01 834.931 1179.64 833.375 1175.43C831.292 1169.78 802.096 1162.6 778.718 1157.7C771.787 1156.25 769.437 1147.86 774.233 1142.65C776.468 1140.22 778.136 1137.73 779.305 1135.7C780.853 1133 783.618 1131.33 786.73 1131.23C797.875 1130.85 823.388 1128.65 830.642 1116.58C840.011 1101.01 824.397 1096.68 797.851 1083.7C781.803 1075.85 754.087 1055.06 734.651 1039.82C738.103 1039.74 741.554 1039.46 744.97 1038.91C738.988 1034.33 733.378 1029.94 728.554 1026.11C727.728 1025.46 727.074 1024.71 726.555 1023.9C727.744 1021.68 729.859 1019.93 732.74 1019.38C743.086 1017.44 754.578 1014.43 759.593 1010.15C761.768 1008.29 763.049 1006.76 763.715 1005.49C765.283 1002.5 768.037 1000.34 771.412 1000.29C801.382 999.82 789.26 980.727 789.26 980.727C750.165 968.593 723.251 946.819 709.681 933.687C704.877 929.034 706.692 920.982 713.008 918.776C721.926 915.663 733.306 910.688 740.856 903.717C745.073 899.822 745.704 896.786 744.527 894.44C742.252 889.919 743.513 884.393 748.261 882.633C759.031 878.635 767.374 871.82 751.011 861.318C739.846 854.151 725.366 845.764 712.226 838.41C704.737 834.216 706.876 822.892 715.371 821.64C719.002 821.105 721.344 820.65 721.344 820.65C737.807 813.264 737.735 804.131 733.586 796.869C733.905 794.1 733.215 791.386 731.966 788.86C731.479 790.065 730.808 791.079 730.046 791.993C725.996 787.38 721.344 784.304 721.344 784.304C701.022 772.812 675.637 752.043 656.297 735.097C649.88 729.475 654.138 719.232 662.669 719.336C664.979 719.364 667.138 719.125 669.037 718.542C683.086 714.217 653.424 696.911 653.424 696.911C653.424 696.911 668.255 701.241 674.5 696.911C680.744 692.586 658.108 672.683 658.108 672.683C628.513 653.455 592.861 606.754 572.89 579.003C569.295 574.007 561.929 574.007 558.334 579.003C538.364 606.754 502.708 653.455 473.113 672.683C473.113 672.683 467.443 677.667 462.559 683.189L455.863 684.091C455.412 685.679 455.588 686.968 456.717 687.75C457.196 688.081 457.735 688.345 458.301 688.58C455.819 692.219 454.61 695.455 456.717 696.911C458.301 698.009 460.44 698.547 462.746 698.743C458.445 702.917 456.222 707.138 461.541 709.145C457.926 713.06 456.602 716.826 462.184 718.546C464.083 719.133 466.242 719.368 468.552 719.34C477.083 719.236 481.336 729.479 474.924 735.101C455.588 752.047 430.199 772.816 409.877 784.308C409.877 784.308 377.09 805.938 409.877 820.65C409.877 820.65 412.223 821.105 415.854 821.64C424.345 822.892 426.488 834.216 418.998 838.41C405.859 845.764 391.379 854.155 380.214 861.318C363.847 871.82 372.194 878.635 382.963 882.633C387.708 884.397 388.972 889.919 386.694 894.44C385.513 896.786 386.147 899.822 390.361 903.717C397.91 910.692 409.294 915.667 418.208 918.776C424.525 920.978 426.34 929.034 421.536 933.687C407.966 946.819 381.052 968.597 341.957 980.727C341.957 980.727 329.834 999.82 359.805 1000.29C363.18 1000.34 365.933 1002.5 367.505 1005.49C368.172 1006.76 369.453 1008.29 371.627 1010.15C376.639 1014.42 388.135 1017.43 398.481 1019.38C406.03 1020.8 408.369 1030.5 402.347 1035.28C383.035 1050.59 351.082 1075.04 333.374 1083.7C306.831 1096.68 291.218 1101.01 300.583 1116.59C307.837 1128.65 333.354 1130.85 344.494 1131.23C347.603 1131.34 350.368 1133 351.92 1135.7C353.085 1137.73 354.753 1140.22 356.991 1142.65C358.228 1144 358.971 1145.56 359.302 1147.15C358.057 1147.4 356.796 1147.65 355.499 1147.92C356.808 1148.42 358.157 1148.8 359.493 1149.21C359.413 1153.11 356.88 1156.79 352.503 1157.71C329.124 1162.61 299.928 1169.78 297.845 1175.43C296.289 1179.65 296.114 1183.02 296.397 1185.46C296.764 1188.59 295.124 1191.62 292.515 1193.39C286.557 1197.42 278.194 1204.55 281.845 1210.91C283.505 1213.8 286.681 1215.9 290.296 1217.41C293.991 1218.95 295.228 1223.17 294.358 1227.08C293.879 1229.23 294.23 1232.13 295.894 1236C300.224 1246.08 321.124 1256.43 338.884 1263.64C347.319 1267.07 346.062 1279.39 337.089 1280.91C320.406 1283.76 298.987 1284.45 280.365 1275.7C275.513 1273.42 269.38 1276.17 268.219 1281.41C267.664 1283.91 268.187 1286.95 270.912 1290.52C279.499 1301.77 275.596 1304.37 275.596 1304.37C275.596 1304.37 256.081 1289.66 264.667 1312.16C269.515 1324.85 286.043 1334.79 299.525 1341.04C305.391 1343.76 306.309 1351.21 301.764 1355.8C299.102 1358.5 297.977 1362.05 300.579 1366.67C308.383 1380.52 341.174 1396.96 377.09 1400.42C395.532 1402.19 417.267 1399.64 434.053 1396.73C440.366 1395.63 444.867 1401.48 443.466 1407.73C442.664 1411.31 444.467 1414.87 451.259 1417.72C464.247 1423.18 478.26 1418.39 487.848 1413.32C492.417 1410.9 498.187 1412.68 500.23 1417.42C501.822 1421.12 505.537 1423.47 513.712 1420.15C522.471 1416.59 530.523 1411.49 536.64 1407.05V1477.75C536.64 1479.65 538.18 1481.19 540.083 1481.19H612.497C614.4 1481.19 615.94 1479.65 615.94 1477.75V1419.46C616.467 1419.69 616.986 1419.93 617.516 1420.15C625.692 1423.47 629.407 1421.12 630.999 1417.42C633.042 1412.68 638.816 1410.9 643.38 1413.32C652.973 1418.39 666.986 1423.19 679.97 1417.72C686.761 1414.87 688.565 1411.31 687.763 1407.73C686.362 1401.48 690.863 1395.63 697.176 1396.73C713.958 1399.64 735.696 1402.2 754.139 1400.42C790.05 1396.96 822.841 1380.52 830.646 1366.67C833.248 1362.05 832.122 1358.5 829.461 1355.8C824.916 1351.21 825.838 1343.76 831.699 1341.04C845.182 1334.79 861.713 1324.85 866.557 1312.16C875.136 1289.65 855.616 1304.36 855.616 1304.36Z" fill="#263238"/>
<path d="M2885.8 1114.14C2885.8 1114.14 2881.57 1111.26 2890.87 1098.8C2893.83 1094.85 2894.39 1091.47 2893.79 1088.7C2892.53 1082.91 2885.89 1079.86 2880.63 1082.38C2860.46 1092.08 2837.26 1091.31 2819.19 1088.16C2809.47 1086.46 2808.12 1072.82 2817.25 1069.03C2836.49 1061.03 2859.12 1049.57 2863.82 1038.4C2865.62 1034.11 2866 1030.9 2865.48 1028.52C2864.54 1024.19 2865.88 1019.52 2869.88 1017.81C2873.8 1016.13 2877.24 1013.81 2879.04 1010.61C2882.99 1003.56 2873.93 995.666 2867.48 991.197C2864.65 989.238 2862.88 985.882 2863.27 982.411C2863.58 979.706 2863.39 975.975 2861.71 971.302C2859.45 965.042 2827.83 957.089 2802.5 951.663C2795 950.055 2792.45 940.766 2797.64 934.992C2800.07 932.299 2801.87 929.533 2803.13 927.287C2804.81 924.298 2807.81 922.455 2811.17 922.335C2823.24 921.916 2850.88 919.474 2858.74 906.111C2868.88 888.858 2851.97 884.062 2823.22 869.681C2805.84 860.987 2775.82 837.952 2754.77 821.073C2758.5 820.978 2762.24 820.666 2765.95 820.06C2759.47 814.988 2753.39 810.12 2748.17 805.883C2747.27 805.157 2746.56 804.323 2746 803.429C2747.28 800.967 2749.57 799.024 2752.7 798.425C2763.91 796.267 2776.35 792.935 2781.79 788.198C2784.14 786.144 2785.53 784.444 2786.25 783.035C2787.95 779.723 2790.93 777.333 2794.59 777.277C2827.06 776.759 2813.92 755.603 2813.92 755.603C2771.58 742.16 2742.43 718.036 2727.73 703.484C2722.52 698.328 2724.49 689.406 2731.33 686.964C2740.99 683.517 2753.32 678.007 2761.49 670.278C2766.06 665.964 2766.74 662.601 2765.47 659.999C2763 654.991 2764.37 648.87 2769.51 646.915C2781.18 642.482 2790.21 634.933 2772.49 623.298C2760.39 615.357 2744.71 606.064 2730.48 597.916C2722.37 593.268 2724.68 580.723 2733.88 579.338C2737.81 578.744 2740.35 578.241 2740.35 578.241C2758.19 570.057 2758.11 559.942 2753.61 551.894C2753.96 548.825 2753.21 545.817 2751.86 543.024C2751.33 544.361 2750.6 545.478 2749.78 546.491C2745.39 541.38 2740.35 537.976 2740.35 537.976C2718.34 525.244 2690.84 502.236 2669.9 483.459C2662.95 477.23 2667.56 465.882 2676.8 465.998C2679.3 466.03 2681.64 465.767 2683.7 465.116C2698.92 460.324 2666.79 441.151 2666.79 441.151C2666.79 441.151 2682.86 445.947 2689.62 441.151C2696.38 436.359 2671.86 414.31 2671.86 414.31C2639.81 393.006 2601.19 341.266 2579.56 310.522C2575.66 304.988 2567.69 304.988 2563.79 310.522C2542.16 341.266 2503.54 393.01 2471.49 414.31C2471.49 414.31 2465.35 419.832 2460.06 425.949L2452.81 426.946C2452.32 428.706 2452.51 430.134 2453.73 431C2454.25 431.367 2454.83 431.659 2455.44 431.922C2452.76 435.952 2451.45 439.535 2453.73 441.151C2455.44 442.368 2457.76 442.963 2460.26 443.178C2455.6 447.803 2453.19 452.475 2458.95 454.702C2455.04 459.039 2453.6 463.213 2459.65 465.116C2461.71 465.763 2464.04 466.026 2466.55 465.998C2475.79 465.886 2480.4 477.23 2473.44 483.459C2452.5 502.236 2425 525.248 2402.99 537.976C2402.99 537.976 2367.47 561.941 2402.99 578.241C2402.99 578.241 2405.53 578.744 2409.46 579.338C2418.66 580.727 2420.98 593.272 2412.87 597.916C2398.64 606.064 2382.95 615.357 2370.86 623.298C2353.13 634.933 2362.17 642.482 2373.83 646.915C2378.97 648.866 2380.34 654.987 2377.88 659.999C2376.6 662.597 2377.28 665.96 2381.85 670.278C2390.03 678.003 2402.35 683.517 2412.01 686.964C2418.85 689.406 2420.82 698.328 2415.61 703.484C2400.91 718.036 2371.76 742.16 2329.42 755.603C2329.42 755.603 2316.29 776.755 2348.75 777.277C2352.4 777.337 2355.39 779.723 2357.09 783.035C2357.81 784.44 2359.19 786.144 2361.55 788.198C2366.98 792.935 2379.43 796.267 2390.64 798.425C2398.81 800.001 2401.34 810.743 2394.83 816.034C2373.91 833.004 2339.3 860.093 2320.11 869.685C2291.37 884.066 2274.45 888.858 2284.6 906.115C2292.46 919.478 2320.09 921.92 2332.16 922.339C2335.53 922.459 2338.53 924.302 2340.2 927.291C2341.47 929.537 2343.27 932.303 2345.69 934.996C2347.03 936.484 2347.84 938.208 2348.19 939.972C2346.84 940.247 2345.48 940.534 2344.08 940.83C2345.5 941.388 2346.95 941.803 2348.4 942.25C2348.32 946.571 2345.57 950.649 2340.83 951.667C2315.51 957.093 2283.89 965.046 2281.63 971.306C2279.95 975.979 2279.76 979.71 2280.07 982.415C2280.46 985.886 2278.69 989.242 2275.86 991.201C2269.41 995.67 2260.35 1003.57 2264.3 1010.61C2266.1 1013.82 2269.54 1016.14 2273.46 1017.81C2277.46 1019.52 2278.8 1024.2 2277.86 1028.53C2277.34 1030.91 2277.72 1034.12 2279.52 1038.41C2284.21 1049.57 2306.85 1061.04 2326.09 1069.03C2335.22 1072.82 2333.86 1086.47 2324.14 1088.16C2306.08 1091.31 2282.87 1092.08 2262.7 1082.39C2257.45 1079.86 2250.81 1082.91 2249.55 1088.71C2248.95 1091.47 2249.52 1094.85 2252.47 1098.8C2261.77 1111.26 2257.54 1114.14 2257.54 1114.14C2257.54 1114.14 2236.4 1097.84 2245.7 1122.77C2250.95 1136.83 2268.85 1147.85 2283.46 1154.77C2289.81 1157.78 2290.8 1166.03 2285.88 1171.13C2283 1174.11 2281.78 1178.05 2284.6 1183.16C2293.05 1198.5 2328.57 1216.72 2367.47 1220.55C2387.44 1222.52 2410.99 1219.69 2429.17 1216.46C2436 1215.25 2440.88 1221.73 2439.36 1228.66C2438.49 1232.62 2440.44 1236.56 2447.8 1239.72C2461.86 1245.77 2477.04 1240.47 2487.43 1234.84C2492.38 1232.16 2498.63 1234.13 2500.84 1239.39C2502.56 1243.49 2506.59 1246.08 2515.44 1242.4C2524.93 1238.46 2533.65 1232.81 2540.28 1227.9V1306.22C2540.28 1308.33 2541.95 1347.67 2544.01 1347.67L2622.44 1310.03C2624.5 1310.03 2626.17 1308.33 2626.17 1306.22V1241.65C2626.74 1241.9 2627.3 1242.17 2627.88 1242.4C2636.73 1246.08 2640.76 1243.49 2642.48 1239.39C2644.7 1234.13 2650.95 1232.16 2655.89 1234.84C2666.28 1240.47 2681.46 1245.77 2695.52 1239.72C2702.88 1236.56 2704.83 1232.62 2703.96 1228.66C2702.44 1221.73 2707.32 1215.25 2714.16 1216.46C2732.34 1219.69 2755.88 1222.52 2775.86 1220.55C2814.76 1216.72 2850.27 1198.5 2858.73 1183.16C2861.54 1178.05 2860.32 1174.11 2857.44 1171.13C2852.52 1166.03 2853.51 1157.78 2859.87 1154.77C2874.47 1147.84 2892.37 1136.83 2897.62 1122.77C2906.94 1097.84 2885.8 1114.14 2885.8 1114.14Z" fill="#263238"/>
<path d="M2429.21 1289.66C2429.21 1289.66 2425.31 1287.06 2433.89 1275.82C2436.62 1272.25 2437.14 1269.2 2436.59 1266.7C2435.43 1261.47 2429.29 1258.72 2424.44 1261C2405.82 1269.74 2384.4 1269.05 2367.72 1266.21C2358.74 1264.68 2357.49 1252.36 2365.92 1248.94C2383.68 1241.72 2404.58 1231.38 2408.91 1221.3C2410.57 1217.42 2410.93 1214.53 2410.45 1212.38C2409.58 1208.47 2410.81 1204.25 2414.51 1202.71C2418.12 1201.19 2421.3 1199.1 2422.96 1196.21C2426.61 1189.85 2418.25 1182.72 2412.29 1178.68C2409.68 1176.92 2408.04 1173.89 2408.41 1170.76C2408.7 1168.31 2408.52 1164.95 2406.96 1160.73C2404.88 1155.08 2375.68 1147.9 2352.31 1143C2345.38 1141.55 2343.03 1133.16 2347.82 1127.95C2350.06 1125.52 2351.73 1123.03 2352.89 1121C2354.44 1118.3 2357.21 1116.64 2360.31 1116.53C2371.46 1116.15 2396.97 1113.95 2404.23 1101.89C2413.6 1086.31 2397.98 1081.98 2371.44 1069.01C2355.39 1061.16 2327.67 1040.37 2308.24 1025.13C2311.69 1025.04 2315.14 1024.76 2318.55 1024.22C2312.57 1019.64 2306.96 1015.25 2302.14 1011.42C2301.31 1010.77 2300.66 1010.01 2300.14 1009.21C2301.33 1006.98 2303.44 1005.23 2306.32 1004.69C2316.67 1002.74 2328.16 999.734 2333.18 995.457C2335.35 993.601 2336.63 992.065 2337.3 990.796C2338.87 987.808 2341.62 985.649 2345 985.597C2374.97 985.126 2362.84 966.034 2362.84 966.034C2323.75 953.9 2296.84 932.125 2283.26 918.99C2278.46 914.337 2280.28 906.285 2286.59 904.078C2295.51 900.966 2306.89 895.991 2314.44 889.02C2318.66 885.125 2319.29 882.089 2318.11 879.743C2315.83 875.222 2317.09 869.695 2321.84 867.936C2332.61 863.938 2340.95 857.122 2324.59 846.62C2313.42 839.454 2298.94 831.067 2285.8 823.713C2278.31 819.519 2280.45 808.195 2288.95 806.942C2292.58 806.408 2294.92 805.953 2294.92 805.953C2311.38 798.567 2311.31 789.434 2307.16 782.171C2307.48 779.402 2306.79 776.689 2305.54 774.163C2305.06 775.368 2304.38 776.382 2303.62 777.296C2299.57 772.683 2294.92 769.607 2294.92 769.607C2274.6 758.115 2249.21 737.346 2229.87 720.4C2223.46 714.778 2227.71 704.535 2236.24 704.639C2238.56 704.667 2240.71 704.427 2242.61 703.845C2256.66 699.52 2227 682.214 2227 682.214C2227 682.214 2241.83 686.544 2248.08 682.214C2254.32 677.889 2231.68 657.986 2231.68 657.986C2202.09 638.758 2166.43 592.057 2146.46 564.305C2142.87 559.31 2135.5 559.31 2131.91 564.305C2111.94 592.057 2076.28 638.758 2046.68 657.986C2046.68 657.986 2041.01 662.97 2036.13 668.492L2029.44 669.394C2028.98 670.982 2029.16 672.271 2030.29 673.053C2030.77 673.384 2031.31 673.647 2031.87 673.883C2029.39 677.522 2028.18 680.758 2030.29 682.214C2031.87 683.312 2034.01 683.85 2036.32 684.046C2032.02 688.219 2029.79 692.441 2035.11 694.448C2031.5 698.362 2030.17 702.129 2035.76 703.849C2037.66 704.435 2039.81 704.671 2042.12 704.643C2050.66 704.539 2054.91 714.782 2048.5 720.404C2029.16 737.35 2003.77 758.119 1983.45 769.61C1983.45 769.61 1950.66 791.241 1983.45 805.953C1983.45 805.953 1985.8 806.408 1989.42 806.942C1997.92 808.195 2000.06 819.519 1992.57 823.713C1979.43 831.067 1964.95 839.458 1953.78 846.62C1937.41 857.122 1945.76 863.938 1956.53 867.936C1961.28 869.699 1962.54 875.222 1960.26 879.743C1959.08 882.089 1959.72 885.125 1963.93 889.02C1971.48 895.994 1982.86 900.97 1991.78 904.078C1998.09 906.281 1999.91 914.337 1995.1 918.99C1981.53 932.121 1954.62 953.9 1915.53 966.034C1915.53 966.034 1903.41 985.126 1933.38 985.597C1936.75 985.649 1939.51 987.808 1941.08 990.796C1941.74 992.065 1943.02 993.601 1945.2 995.457C1950.21 999.73 1961.71 1002.74 1972.05 1004.69C1979.6 1006.11 1981.94 1015.81 1975.92 1020.58C1956.61 1035.9 1924.65 1060.35 1906.95 1069.01C1880.4 1081.99 1864.79 1086.32 1874.15 1101.89C1881.41 1113.95 1906.92 1116.15 1918.07 1116.53C1921.17 1116.64 1923.94 1118.31 1925.49 1121C1926.66 1123.03 1928.33 1125.53 1930.56 1127.96C1931.8 1129.3 1932.54 1130.86 1932.87 1132.45C1931.63 1132.7 1930.37 1132.96 1929.07 1133.22C1930.38 1133.73 1931.73 1134.1 1933.07 1134.51C1932.99 1138.41 1930.45 1142.09 1926.07 1143.01C1902.7 1147.91 1873.5 1155.08 1871.42 1160.74C1869.86 1164.95 1869.69 1168.32 1869.97 1170.76C1870.34 1173.9 1868.7 1176.92 1866.09 1178.69C1860.13 1182.73 1851.77 1189.86 1855.42 1196.21C1857.08 1199.11 1860.25 1201.2 1863.87 1202.71C1867.56 1204.26 1868.8 1208.47 1867.93 1212.39C1867.45 1214.54 1867.8 1217.43 1869.47 1221.31C1873.8 1231.39 1894.7 1241.73 1912.46 1248.95C1920.89 1252.37 1919.64 1264.69 1910.66 1266.22C1893.98 1269.06 1872.56 1269.75 1853.94 1261.01C1849.09 1258.73 1842.96 1261.48 1841.79 1266.71C1841.24 1269.21 1841.76 1272.25 1844.49 1275.82C1853.07 1287.07 1849.17 1289.67 1849.17 1289.67C1849.17 1289.67 1829.66 1274.96 1838.24 1297.46C1843.09 1310.16 1859.62 1320.09 1873.1 1326.34C1878.97 1329.06 1879.88 1336.51 1875.34 1341.11C1872.68 1343.8 1871.55 1347.36 1874.15 1351.97C1881.96 1365.82 1914.75 1382.26 1950.67 1385.72C1969.11 1387.5 1990.84 1384.94 2007.63 1382.03C2013.94 1380.94 2018.44 1386.79 2017.04 1393.04C2016.24 1396.61 2018.04 1400.17 2024.83 1403.03C2037.82 1408.49 2051.84 1403.7 2061.42 1398.62C2065.99 1396.2 2071.76 1397.98 2073.81 1402.73C2075.4 1406.43 2079.11 1408.77 2087.29 1405.45C2096.05 1401.89 2104.1 1396.79 2110.22 1392.36V1463.05C2110.22 1464.95 2111.76 1466.49 2113.66 1466.49H2186.07C2187.98 1466.49 2189.52 1464.95 2189.52 1463.05V1404.77C2190.04 1404.99 2190.56 1405.23 2191.09 1405.45C2199.27 1408.77 2202.99 1406.43 2204.58 1402.73C2206.62 1397.98 2212.39 1396.2 2216.96 1398.62C2226.55 1403.7 2240.56 1408.49 2253.55 1403.03C2260.34 1400.17 2262.14 1396.61 2261.34 1393.04C2259.94 1386.79 2264.44 1380.94 2270.75 1382.03C2287.53 1384.94 2309.27 1387.5 2327.72 1385.72C2363.63 1382.26 2396.42 1365.82 2404.22 1351.97C2406.82 1347.36 2405.69 1343.8 2403.04 1341.11C2398.49 1336.51 2399.41 1329.06 2405.28 1326.34C2418.76 1320.09 2435.29 1310.15 2440.13 1297.46C2448.72 1274.95 2429.21 1289.66 2429.21 1289.66Z" fill="#263238"/>
<path d="M1938.2 1607.21C1938.2 1607.21 1935.95 1605.72 1940.89 1599.24C1942.46 1597.19 1942.77 1595.44 1942.45 1594C1941.78 1590.99 1938.25 1589.4 1935.46 1590.72C1924.74 1595.75 1912.41 1595.35 1902.81 1593.72C1897.65 1592.83 1896.93 1585.75 1901.78 1583.78C1912 1579.63 1924.02 1573.67 1926.52 1567.87C1927.47 1565.64 1927.68 1563.98 1927.4 1562.74C1926.9 1560.49 1927.61 1558.06 1929.74 1557.17C1931.82 1556.3 1933.65 1555.1 1934.61 1553.43C1936.7 1549.77 1931.89 1545.67 1928.46 1543.35C1926.96 1542.33 1926.02 1540.59 1926.23 1538.78C1926.39 1537.38 1926.29 1535.44 1925.4 1533.01C1924.2 1529.76 1907.4 1525.63 1893.95 1522.81C1889.96 1521.98 1888.61 1517.15 1891.36 1514.16C1892.65 1512.76 1893.61 1511.32 1894.28 1510.15C1895.17 1508.6 1896.76 1507.64 1898.55 1507.58C1904.97 1507.36 1919.65 1506.1 1923.82 1499.16C1929.21 1490.2 1920.23 1487.71 1904.95 1480.24C1895.72 1475.72 1879.77 1463.76 1868.59 1454.99C1870.58 1454.94 1872.56 1454.78 1874.53 1454.46C1871.08 1451.83 1867.85 1449.3 1865.08 1447.1C1864.61 1446.72 1864.23 1446.29 1863.93 1445.82C1864.61 1444.55 1865.83 1443.54 1867.49 1443.22C1873.44 1442.1 1880.06 1440.37 1882.95 1437.91C1884.2 1436.85 1884.93 1435.96 1885.32 1435.23C1886.22 1433.51 1887.8 1432.27 1889.74 1432.24C1906.99 1431.97 1900.01 1420.98 1900.01 1420.98C1877.52 1414 1862.03 1401.47 1854.22 1393.91C1851.46 1391.24 1852.5 1386.6 1856.14 1385.33C1861.27 1383.54 1867.82 1380.68 1872.16 1376.67C1874.59 1374.43 1874.95 1372.68 1874.27 1371.33C1872.97 1368.73 1873.69 1365.55 1876.42 1364.53C1882.62 1362.23 1887.42 1358.31 1878 1352.27C1871.58 1348.15 1863.25 1343.32 1855.68 1339.08C1851.37 1336.67 1852.6 1330.15 1857.49 1329.44C1859.58 1329.13 1860.93 1328.87 1860.93 1328.87C1870.41 1324.62 1870.36 1319.36 1867.97 1315.18C1868.16 1313.59 1867.76 1312.03 1867.04 1310.57C1866.76 1311.27 1866.38 1311.85 1865.94 1312.38C1863.61 1309.72 1860.93 1307.95 1860.93 1307.95C1849.24 1301.34 1834.63 1289.39 1823.5 1279.64C1819.81 1276.4 1822.26 1270.51 1827.17 1270.57C1828.5 1270.59 1829.74 1270.45 1830.83 1270.11C1838.91 1267.62 1821.84 1257.66 1821.84 1257.66C1821.84 1257.66 1830.38 1260.15 1833.97 1257.66C1837.57 1255.17 1824.54 1243.72 1824.54 1243.72C1807.51 1232.66 1786.99 1205.78 1775.5 1189.81C1773.44 1186.94 1769.19 1186.94 1767.13 1189.81C1755.64 1205.78 1735.12 1232.66 1718.09 1243.72C1718.09 1243.72 1714.82 1246.59 1712.01 1249.76L1708.16 1250.28C1707.9 1251.2 1708 1251.94 1708.65 1252.39C1708.93 1252.58 1709.24 1252.73 1709.56 1252.87C1708.14 1254.96 1707.44 1256.82 1708.65 1257.66C1709.56 1258.29 1710.79 1258.6 1712.12 1258.71C1709.64 1261.12 1708.36 1263.54 1711.42 1264.7C1709.35 1266.95 1708.58 1269.12 1711.8 1270.11C1712.89 1270.45 1714.13 1270.59 1715.46 1270.57C1720.37 1270.51 1722.82 1276.4 1719.13 1279.64C1708 1289.39 1693.39 1301.34 1681.7 1307.95C1681.7 1307.95 1662.83 1320.4 1681.7 1328.87C1681.7 1328.87 1683.05 1329.13 1685.14 1329.44C1690.03 1330.16 1691.25 1336.67 1686.94 1339.08C1679.38 1343.32 1671.05 1348.15 1664.63 1352.27C1655.21 1358.31 1660.01 1362.23 1666.21 1364.53C1668.94 1365.55 1669.67 1368.73 1668.35 1371.33C1667.68 1372.68 1668.04 1374.43 1670.47 1376.67C1674.81 1380.68 1681.36 1383.54 1686.49 1385.33C1690.12 1386.6 1691.17 1391.24 1688.41 1393.91C1680.6 1401.47 1665.11 1414 1642.61 1420.98C1642.61 1420.98 1635.64 1431.97 1652.88 1432.24C1654.83 1432.27 1656.41 1433.51 1657.31 1435.23C1657.7 1435.96 1658.44 1436.85 1659.68 1437.91C1662.57 1440.37 1669.18 1442.1 1675.13 1443.22C1679.48 1444.04 1680.82 1449.62 1677.36 1452.37C1666.25 1461.18 1647.86 1475.25 1637.67 1480.24C1622.4 1487.71 1613.41 1490.2 1618.8 1499.16C1622.97 1506.1 1637.66 1507.36 1644.07 1507.58C1645.86 1507.64 1647.45 1508.6 1648.34 1510.15C1649.01 1511.32 1649.98 1512.76 1651.26 1514.16C1651.97 1514.93 1652.4 1515.82 1652.59 1516.74C1651.88 1516.89 1651.15 1517.03 1650.4 1517.18C1651.16 1517.48 1651.93 1517.69 1652.7 1517.92C1652.66 1520.17 1651.2 1522.29 1648.68 1522.81C1635.23 1525.64 1618.43 1529.77 1617.23 1533.01C1616.34 1535.44 1616.23 1537.38 1616.4 1538.78C1616.61 1540.59 1615.66 1542.33 1614.16 1543.35C1610.73 1545.67 1605.92 1549.77 1608.02 1553.43C1608.98 1555.1 1610.8 1556.3 1612.88 1557.17C1615.01 1558.06 1615.72 1560.49 1615.22 1562.74C1614.95 1563.97 1615.15 1565.64 1616.11 1567.87C1618.6 1573.67 1630.63 1579.62 1640.85 1583.78C1645.7 1585.75 1644.98 1592.83 1639.81 1593.72C1630.21 1595.35 1617.89 1595.75 1607.17 1590.72C1604.38 1589.4 1600.85 1590.99 1600.18 1594C1599.86 1595.44 1600.16 1597.19 1601.73 1599.24C1606.67 1605.71 1604.42 1607.21 1604.42 1607.21C1604.42 1607.21 1593.19 1598.75 1598.14 1611.69C1600.93 1619 1610.43 1624.72 1618.19 1628.31C1621.57 1629.88 1622.1 1634.16 1619.48 1636.81C1617.95 1638.36 1617.3 1640.4 1618.8 1643.06C1623.29 1651.03 1642.16 1660.49 1662.83 1662.48C1673.44 1663.5 1685.95 1662.03 1695.61 1660.36C1699.24 1659.73 1701.83 1663.1 1701.02 1666.69C1700.56 1668.75 1701.6 1670.8 1705.51 1672.44C1712.98 1675.58 1721.04 1672.83 1726.56 1669.91C1729.19 1668.51 1732.51 1669.54 1733.69 1672.27C1734.61 1674.4 1736.75 1675.75 1741.45 1673.84C1746.49 1671.79 1751.12 1668.85 1754.64 1666.3V1706.98C1754.64 1708.08 1755.53 1708.96 1756.62 1708.96H1798.29C1799.38 1708.96 1800.27 1708.08 1800.27 1706.98V1673.45C1800.57 1673.58 1800.87 1673.71 1801.18 1673.84C1805.88 1675.75 1808.02 1674.4 1808.94 1672.27C1810.12 1669.54 1813.44 1668.51 1816.07 1669.91C1821.58 1672.83 1829.65 1675.59 1837.12 1672.44C1841.03 1670.8 1842.07 1668.75 1841.61 1666.69C1840.8 1663.1 1843.39 1659.73 1847.02 1660.36C1856.68 1662.03 1869.19 1663.51 1879.8 1662.48C1900.47 1660.49 1919.34 1651.03 1923.83 1643.06C1925.32 1640.4 1924.68 1638.36 1923.15 1636.81C1920.53 1634.16 1921.06 1629.88 1924.43 1628.31C1932.2 1624.72 1941.7 1619 1944.49 1611.69C1949.43 1598.75 1938.2 1607.21 1938.2 1607.21Z" fill="#263238"/>
<path d="M808.152 1602.88C800.415 1355.5 749.285 1337.68 749.285 1337.68C787.347 1440.6 761.18 1602.88 761.18 1602.88H808.152Z" fill="#263238"/>
<path d="M824.887 1602.89C830.337 1428.59 866.364 1416.04 866.364 1416.04C839.546 1488.55 857.985 1602.89 857.985 1602.89H824.887Z" fill="#263238"/>
<path d="M852.561 1602.89C856.188 1486.93 880.152 1478.58 880.152 1478.58C862.312 1526.82 874.578 1602.89 874.578 1602.89H852.561Z" fill="#263238"/>
<path d="M773.835 1602.89C770.044 1481.74 745.006 1473.02 745.006 1473.02C763.644 1523.42 750.832 1602.89 750.832 1602.89H773.835Z" fill="#263238"/>
<path d="M800.688 1602.88C805.715 1317.74 838.933 1297.21 838.933 1297.21C814.206 1415.83 831.204 1602.88 831.204 1602.88H800.688Z" fill="#263238"/>
<path d="M962.161 1677.39C954.109 1462.77 900.893 1447.31 900.893 1447.31C940.507 1536.6 913.27 1677.39 913.27 1677.39H962.161Z" fill="#263238"/>
<path d="M952.072 1621.79C957.746 1470.57 995.242 1459.68 995.242 1459.68C967.331 1522.59 986.519 1621.79 986.519 1621.79H952.072Z" fill="#263238"/>
<path d="M986.424 1605.73C990.199 1505.13 1015.14 1497.88 1015.14 1497.88C996.571 1539.73 1009.34 1605.73 1009.34 1605.73H986.424Z" fill="#263238"/>
<path d="M898.729 1602.88C894.786 1497.78 868.723 1490.21 868.723 1490.21C888.123 1533.93 874.784 1602.88 874.784 1602.88H898.729Z" fill="#263238"/>
<path d="M921.244 1602.89C915.894 1460.32 880.545 1450.05 880.545 1450.05C906.86 1509.36 888.769 1602.89 888.769 1602.89H921.244Z" fill="#263238"/>
<path d="M933.852 1650.34C939.083 1402.96 973.657 1385.15 973.657 1385.15C947.921 1488.06 965.613 1650.34 965.613 1650.34H933.852Z" fill="#263238"/>
<path d="M1099.35 1624.99C1086.9 1513.89 1112.05 1499.74 1112.05 1499.74C1099.28 1550.19 1123.54 1619.28 1123.54 1619.28L1099.35 1624.99Z" fill="#263238"/>
<path d="M1025.93 1620.37C1030.44 1424.54 1060.29 1410.44 1060.29 1410.44C1038.07 1491.9 1053.35 1620.37 1053.35 1620.37H1025.93Z" fill="#263238"/>
<path d="M1036.73 1602.89C1033.89 1527.28 1015.14 1521.84 1015.14 1521.84C1029.1 1553.29 1019.5 1602.89 1019.5 1602.89H1036.73Z" fill="#263238"/>
<path d="M1053.91 1634.1C1059.14 1475.27 1093.71 1463.83 1093.71 1463.83C1046.82 1542.02 1076.18 1639.53 1085.67 1634.1H1053.91Z" fill="#263238"/>
<path d="M1168.58 1747.94C1160.84 1500.55 1109.71 1482.74 1109.71 1482.74C1147.77 1585.65 1121.61 1747.94 1121.61 1747.94H1168.58Z" fill="#263238"/>
<path d="M1161.2 1584.07C1157.41 1462.93 1132.37 1454.2 1132.37 1454.2C1151.01 1504.6 1138.19 1584.07 1138.19 1584.07H1161.2Z" fill="#263238"/>
<path d="M1146.78 1726.24C1151.8 1441.1 1185.02 1420.57 1185.02 1420.57C1160.3 1539.19 1177.29 1726.24 1177.29 1726.24H1146.78Z" fill="#263238"/>
<path d="M1196.51 1606.61C1200.28 1506.01 1225.23 1498.76 1225.23 1498.76C1206.66 1540.61 1219.43 1606.61 1219.43 1606.61H1196.51Z" fill="#263238"/>
<path d="M1094.45 1606.61C1090.51 1501.5 1064.44 1493.93 1064.44 1493.93C1083.84 1537.66 1070.5 1606.61 1070.5 1606.61H1094.45Z" fill="#263238"/>
<path d="M1257.59 1600.18C1292.45 1493.95 1321.21 1491.53 1321.21 1491.53C1288.63 1532.12 1281.98 1605.03 1281.98 1605.03L1257.59 1600.18Z" fill="#263238"/>
<path d="M1232.45 1606.6C1229.61 1530.99 1210.86 1525.55 1210.86 1525.55C1224.82 1557 1215.22 1606.6 1215.22 1606.6H1232.45Z" fill="#263238"/>
<path d="M0 1273.08C0 1273.08 838.282 1630.4 1450 1578.75C2061.72 1527.1 2900 1194.05 2900 1194.05V1812.57H0V1273.08Z" fill="#263238"/>
<path d="M29.2277 1291.47L130.294 1328.3V1279.95C130.964 1280.24 131.627 1280.55 132.305 1280.82C142.727 1285.06 147.464 1282.07 149.491 1277.35C152.096 1271.31 159.45 1269.04 165.272 1272.12C177.494 1278.6 195.358 1284.7 211.909 1277.74C220.563 1274.1 222.866 1269.57 221.84 1265.01C220.053 1257.04 225.794 1249.59 233.835 1250.98C255.226 1254.69 282.929 1257.95 306.435 1255.69C352.206 1251.28 393.999 1230.32 403.946 1212.67C407.262 1206.79 405.826 1202.26 402.434 1198.83C396.645 1192.97 397.814 1183.48 405.287 1180.01C422.473 1172.04 443.541 1159.37 449.714 1143.19C460.658 1114.52 435.784 1133.27 435.784 1133.27C435.784 1133.27 430.808 1129.96 441.753 1115.63C445.225 1111.08 445.895 1107.19 445.189 1104.01C443.708 1097.34 435.892 1093.83 429.707 1096.74C405.973 1107.89 378.669 1107.01 357.409 1103.38C345.97 1101.43 344.374 1085.74 355.123 1081.37C377.759 1072.17 404.397 1058.99 409.916 1046.15C412.039 1041.2 412.485 1037.52 411.875 1034.77C410.766 1029.79 412.342 1024.42 417.05 1022.45C421.659 1020.52 425.709 1017.85 427.824 1014.16C432.476 1006.06 421.814 996.971 414.221 991.832C410.893 989.577 408.807 985.719 409.273 981.725C409.636 978.609 409.409 974.319 407.43 968.944C404.772 961.742 367.564 952.597 337.766 946.352C328.936 944.501 325.939 933.815 332.048 927.175C334.897 924.075 337.024 920.899 338.512 918.309C340.487 914.87 344.01 912.751 347.973 912.615C362.174 912.133 394.693 909.323 403.939 893.949C415.881 874.098 395.978 868.584 362.146 852.041C341.692 842.038 306.367 815.535 281.597 796.119C285.994 796.011 290.399 795.648 294.752 794.954C287.127 789.12 279.977 783.518 273.832 778.642C272.778 777.808 271.944 776.847 271.286 775.821C272.798 772.988 275.496 770.754 279.171 770.063C292.358 767.577 307.006 763.747 313.398 758.296C316.171 755.934 317.799 753.975 318.649 752.359C320.648 748.548 324.159 745.799 328.461 745.731C366.659 745.133 351.209 720.797 351.209 720.797C301.38 705.335 267.08 677.58 249.783 660.841C243.658 654.912 245.973 644.645 254.025 641.84C265.389 637.874 279.893 631.533 289.517 622.643C294.892 617.68 295.698 613.809 294.193 610.821C291.293 605.059 292.905 598.016 298.95 595.77C312.676 590.67 323.31 581.984 302.453 568.601C288.224 559.467 269.766 548.778 253.023 539.401C243.475 534.054 246.204 519.622 257.029 518.026C261.654 517.343 264.642 516.765 264.642 516.765C285.627 507.348 285.535 495.713 280.244 486.456C280.651 482.928 279.773 479.465 278.181 476.249C277.563 477.785 276.705 479.074 275.735 480.239C270.576 474.357 264.642 470.443 264.642 470.443C238.742 455.799 206.386 429.329 181.739 407.726C173.563 400.56 178.986 387.508 189.859 387.64C192.804 387.675 195.553 387.372 197.975 386.626C215.883 381.112 178.076 359.054 178.076 359.054C178.076 359.054 196.981 364.569 204.942 359.054C212.902 353.54 184.049 328.174 184.049 328.174C146.331 303.667 100.891 244.146 75.4336 208.773C70.8529 202.409 61.4641 202.409 56.8834 208.773C42.5907 228.632 21.9975 256.104 0.0078125 280.72V1280.82C11.1722 1276.29 21.4309 1269.79 29.2317 1264.14L29.2277 1291.47Z" fill="#263238"/>
<path d="M1176.09 1632.13C1174.8 1632.33 1171.86 1623.16 1170.36 1607.73C1169.58 1600.02 1169.39 1590.78 1169.89 1580.53C1170.53 1570.3 1171.94 1559.06 1174.46 1547.47C1177.08 1535.9 1180.57 1525.13 1184.33 1515.58C1188.21 1506.08 1192.3 1497.79 1196.28 1491.14C1204.16 1477.8 1210.72 1470.74 1211.8 1471.47C1214.5 1473.14 1194.24 1505.09 1184.61 1549.72C1174.43 1594.23 1179.25 1631.77 1176.09 1632.13Z" fill="#263238"/>
<path d="M1252.07 1673.46C1250.74 1673.66 1247.62 1663.93 1246.14 1647.49C1245.79 1643.39 1245.56 1638.86 1245.58 1633.99C1245.65 1628.95 1245.83 1624.36 1245.51 1619.13C1244.99 1608.83 1243.17 1597.19 1242.57 1584.58C1241.22 1559.66 1242.64 1537.03 1244.86 1520.87C1247.08 1504.69 1249.88 1494.93 1251.25 1495.12C1254.24 1495.53 1250.21 1535.25 1252.94 1584.03C1253.5 1596.08 1255.05 1607.77 1255.07 1618.86C1255.15 1624.33 1254.61 1629.89 1254.19 1634.34C1253.81 1638.97 1253.61 1643.31 1253.48 1647.29C1253.06 1663.2 1253.57 1673.25 1252.07 1673.46Z" fill="#263238"/>
<path d="M1236.09 1479.24C1238.95 1479.25 1241.25 1506.54 1241.22 1540.2C1241.18 1573.87 1238.83 1601.15 1235.96 1601.15C1233.09 1601.14 1230.79 1573.86 1230.83 1540.19C1230.86 1506.53 1233.22 1479.24 1236.09 1479.24Z" fill="#263238"/>
<path d="M1270.05 1540.35C1272.86 1540.45 1274.59 1552.98 1270.97 1567.8C1267.4 1582.65 1260.14 1592.99 1257.59 1591.79C1254.93 1590.59 1257.58 1579.13 1260.87 1565.36C1264.25 1551.61 1267.13 1540.2 1270.05 1540.35Z" fill="#263238"/>
<path d="M967.906 1486.95C970.679 1488.11 964.89 1506.93 962.547 1530.63C959.966 1554.32 961.757 1573.92 958.805 1574.49C957.444 1574.73 955.177 1570.01 953.494 1561.87C951.798 1553.76 950.912 1542.2 952.213 1529.56C953.537 1516.92 956.786 1505.79 960.113 1498.2C963.441 1490.58 966.625 1486.43 967.906 1486.95Z" fill="#263238"/>
<path d="M1302.33 1601.15L1348.35 1521.66L1440.38 1487.65L1514.01 1522.58L1560 1566.85L1302.33 1601.15Z" fill="#263238"/>
<path opacity="0.3" d="M1559.99 1566.85C1574.83 1576.1 1626.02 1600.02 1627.11 1605.04C1626.19 1600.82 1612.89 1557.18 1612.89 1557.18L1559.99 1566.85Z" fill="#FF725E"/>
<path opacity="0.3" d="M1922.99 1500.32L2288.28 1546.97C2281.78 1544.37 2078.59 1460.79 2078.59 1460.79L1922.99 1500.32Z" fill="#FF725E"/>
<path opacity="0.3" d="M2320.95 1392.04L2648.4 1395.47C2642.52 1393.51 2545.89 1322.85 2545.89 1322.85L2320.95 1392.04Z" fill="#FF725E"/>
<path opacity="0.3" d="M1285.79 1583.4L1294.21 1632.13L1316.9 1584.28L1285.79 1583.4Z" fill="#FF725E"/>
<path opacity="0.3" d="M1176.65 1577.73L1166.01 1634.31L1198.19 1579.58L1176.65 1577.73Z" fill="#FF725E"/>
<path opacity="0.3" d="M2744.54 1253.32L2854.49 1272.72C2854.49 1272.72 2894.45 1196.24 2892.07 1197.17C2889.69 1198.1 2744.54 1253.32 2744.54 1253.32Z" fill="#FF725E"/>
<path opacity="0.3" d="M615.928 1477.73L452.5 1584.28L737.931 1508.31L615.928 1477.73Z" fill="#FF725E"/>
<path opacity="0.3" d="M348.967 1400.34L200.973 1486.95L536.704 1457.49L348.967 1400.34Z" fill="#FF725E"/>
</svg>
