<svg width="2901" height="1814" viewBox="0 0 2901 1814" fill="none" xmlns="http://www.w3.org/2000/svg">
<path d="M2900.17 940H0V1813.27H2900.17V940Z" fill="#FF725E"/>
<path opacity="0.5" d="M2900.17 940H0V1813.27H2900.17V940Z" fill="white"/>
<g opacity="0.3">
<path d="M2444.68 1488.48C2438.57 1441.75 2387.89 1416.06 2342.87 1402.14C2016.27 1301.18 1663.65 1397.47 1322.51 1375.48C1487.7 1347.32 1652.89 1319.16 1818.08 1291C1842.01 1286.92 1873.57 1268.83 1861.99 1247.49C1855.41 1235.38 1838.91 1233.93 1825.12 1234.01C1732.69 1234.49 1640.25 1234.97 1547.81 1235.45C1502.17 1235.68 1456.52 1235.92 1410.87 1236.16C1388.05 1236.27 1365.23 1236.39 1342.4 1236.51C1321.73 1236.62 1292.97 1232.18 1274.04 1237.8C1356.58 1266.14 1449.86 1273.81 1536.51 1268.7C1425.89 1279.01 1314.53 1289.94 1203.28 1287.12C1093.23 1284.32 984.087 1266.75 876.85 1242.59C797.128 1224.63 718.294 1203 639.689 1180.71C446.669 1125.99 252.96 1072.37 64.7839 1002.69C44.2093 994.967 22.7555 987.333 1.70898 978.711V1411.44C486.177 1567.76 1109.72 1711.36 1402.4 1711.35C1615.63 1711.35 1828.87 1697.85 2040.4 1670.96C2145.3 1657.62 2250.94 1640.68 2348.69 1600.34C2397.66 1580.12 2451.55 1541.02 2444.68 1488.48Z" fill="#FF725E"/>
</g>
<path d="M980.963 1089.66C1279.84 1097.03 1578.41 1098.87 1876.03 1088.75C1577.76 1090.83 1279.3 1091.13 980.963 1089.66Z" fill="#FF725E"/>
<path d="M1201.6 1064.75C1364.01 1072.11 1526.25 1073.96 1687.98 1063.84C1525.89 1065.91 1363.71 1066.22 1201.6 1064.75Z" fill="#FF725E"/>
<path d="M1184.87 1120.38C1347.27 1127.75 1509.52 1129.59 1671.24 1119.48C1509.16 1121.55 1346.98 1121.85 1184.87 1120.38Z" fill="#FF725E"/>
<path d="M1205.98 1167.76C1302.27 1172.13 1398.46 1173.23 1494.35 1167.22C1398.25 1168.45 1302.1 1168.63 1205.98 1167.76Z" fill="#FF725E"/>
</svg>
